<?xml version="1.0" encoding="utf-8"?>
<!-- Generator: Adobe Illustrator 25.0.0, SVG Export Plug-In . SVG Version: 6.00 Build 0)  -->
<svg version="1.1" id="Layer_1" xmlns="http://www.w3.org/2000/svg" xmlns:xlink="http://www.w3.org/1999/xlink" x="0px" y="0px"
	 viewBox="0 0 792 612" style="enable-background:new 0 0 792 612;" xml:space="preserve">
<style type="text/css">
	.st0{fill-rule:evenodd;clip-rule:evenodd;}
</style>
<g>
	<path class="st0" d="M434.55,333.22c-18.6,13.73-45.58,21.03-68.8,21.03c-32.55,0-61.86-12.03-84.04-32.06
		c-1.74-1.57-0.19-3.72,1.91-2.5C307.54,333.61,337.13,342,367.7,342c20.62,0,43.29-4.28,64.14-13.13
		C434.99,327.54,437.62,330.94,434.55,333.22z"/>
	<path class="st0" d="M442.29,324.38c-2.38-3.05-15.73-1.44-21.73-0.72c-1.82,0.22-2.1-1.37-0.46-2.52
		c10.65-7.48,28.1-5.32,30.13-2.82c2.04,2.53-0.54,20.02-10.52,28.37c-1.54,1.28-3,0.6-2.31-1.1
		C439.64,339.98,444.67,327.43,442.29,324.38z"/>
</g>
<g>
	<path class="st0" d="M420.99,268.29v-7.27c0.01-1.11,0.84-1.84,1.84-1.84l32.58,0c1.04,0,1.88,0.76,1.88,1.83v6.23
		c-0.01,1.05-0.89,2.41-2.45,4.58l-16.87,24.09c6.26-0.15,12.89,0.79,18.58,3.99c1.28,0.72,1.63,1.79,1.73,2.84v7.76
		c0,1.07-1.17,2.3-2.4,1.66c-10.03-5.25-23.33-5.83-34.42,0.07c-1.13,0.6-2.32-0.62-2.32-1.69v-7.37c0-1.18,0.02-3.2,1.21-5
		l19.55-28.05l-17.02,0C421.83,270.12,420.99,269.38,420.99,268.29z"/>
	<path class="st0" d="M302.16,313.69h-9.91c-0.94-0.06-1.7-0.77-1.77-1.68l0.01-50.86c0-1.02,0.85-1.83,1.91-1.83l9.23,0
		c0.97,0.05,1.74,0.78,1.8,1.71v6.64h0.19c2.4-6.42,6.94-9.42,13.04-9.42c6.2,0,10.08,3,12.86,9.42c2.41-6.42,7.86-9.42,13.69-9.42
		c4.16,0,8.7,1.71,11.47,5.57c3.14,4.28,2.5,10.49,2.5,15.95l-0.01,32.1c0,1.01-0.85,1.83-1.91,1.83h-9.9
		c-1-0.06-1.78-0.85-1.78-1.83l0-26.97c0-2.14,0.19-7.49-0.28-9.52c-0.74-3.43-2.96-4.39-5.83-4.39c-2.41,0-4.9,1.61-5.92,4.17
		c-1.02,2.57-0.92,6.85-0.92,9.74v26.96c0,1.01-0.85,1.83-1.91,1.83h-9.9c-1-0.06-1.78-0.85-1.78-1.83l-0.01-26.97
		c0-5.67,0.92-14.02-6.1-14.02c-7.12,0-6.85,8.13-6.85,14.02l0,26.96C304.07,312.87,303.22,313.69,302.16,313.69z"/>
	<path class="st0" d="M485.32,258.25c14.71,0,22.66,12.63,22.66,28.69c0,15.52-8.79,27.83-22.66,27.83
		c-14.43,0-22.29-12.63-22.29-28.36C463.03,270.55,470.98,258.25,485.32,258.25z M485.41,268.63c-7.31,0-7.77,9.95-7.77,16.16
		c0,6.21-0.09,19.48,7.68,19.48c7.68,0,8.05-10.7,8.05-17.23c0-4.28-0.18-9.42-1.48-13.49
		C490.78,270.02,488.56,268.63,485.41,268.63z"/>
	<path class="st0" d="M527.06,313.69h-9.87c-0.99-0.06-1.78-0.85-1.78-1.83l-0.02-50.88c0.08-0.93,0.91-1.66,1.9-1.66l9.19,0
		c0.87,0.05,1.58,0.63,1.76,1.42v7.78h0.19c2.78-6.96,6.66-10.28,13.5-10.28c4.44,0,8.79,1.6,11.56,6
		c2.59,4.07,2.59,10.92,2.59,15.84v32.01c-0.11,0.9-0.92,1.6-1.9,1.6h-9.93c-0.92-0.06-1.66-0.73-1.76-1.6v-27.62
		c0-5.57,0.65-13.7-6.2-13.7c-2.41,0-4.63,1.61-5.74,4.07c-1.39,3.11-1.57,6.21-1.57,9.64v27.39
		C528.98,312.87,528.12,313.69,527.06,313.69z"/>
	<path class="st0" d="M395.02,289.4c0,3.86,0.09,7.08-1.86,10.51c-1.58,2.79-4.08,4.5-6.86,4.5c-3.8,0-6.03-2.9-6.03-7.19
		c0-8.44,7.57-9.97,14.74-9.97V289.4z M405.01,313.56c-0.65,0.59-1.6,0.63-2.34,0.23c-3.29-2.74-3.88-4-5.68-6.6
		c-5.44,5.54-9.29,7.2-16.34,7.2c-8.34,0-14.83-5.15-14.83-15.45c0-8.04,4.36-13.52,10.57-16.2c5.38-2.36,12.89-2.79,18.64-3.43
		v-1.29c0-2.36,0.18-5.15-1.21-7.19c-1.21-1.82-3.52-2.58-5.56-2.58c-3.78,0-7.14,1.94-7.97,5.95c-0.17,0.89-0.82,1.78-1.72,1.82
		l-9.61-1.04c-0.81-0.18-1.71-0.83-1.48-2.07c2.21-11.65,12.73-15.17,22.16-15.17c4.82,0,11.13,1.29,14.93,4.93
		c4.82,4.5,4.36,10.51,4.36,17.06v15.44c0,4.65,1.93,6.68,3.74,9.18c0.63,0.9,0.78,1.97-0.03,2.63c-2.02,1.7-5.62,4.82-7.6,6.58
		L405.01,313.56z"/>
	<path class="st0" d="M265.1,289.4c0,3.86,0.09,7.08-1.85,10.51c-1.57,2.79-4.08,4.5-6.86,4.5c-3.8,0-6.03-2.9-6.03-7.19
		c0-8.44,7.57-9.97,14.74-9.97V289.4z M275.1,313.56c-0.65,0.59-1.6,0.63-2.34,0.23c-3.29-2.74-3.88-4-5.68-6.6
		c-5.44,5.54-9.29,7.2-16.34,7.2c-8.34,0-14.83-5.15-14.83-15.45c0-8.04,4.36-13.52,10.57-16.2c5.38-2.36,12.89-2.79,18.63-3.43
		v-1.29c0-2.36,0.19-5.15-1.2-7.19c-1.21-1.82-3.52-2.58-5.56-2.58c-3.78,0-7.14,1.94-7.97,5.95c-0.17,0.89-0.82,1.78-1.72,1.82
		l-9.6-1.04c-0.81-0.18-1.71-0.83-1.48-2.07c2.21-11.65,12.73-15.17,22.16-15.17c4.82,0,11.12,1.29,14.93,4.93
		c4.82,4.5,4.36,10.51,4.36,17.06v15.44c0,4.65,1.93,6.68,3.74,9.18c0.63,0.9,0.78,1.97-0.03,2.63c-2.02,1.7-5.62,4.82-7.6,6.58
		L275.1,313.56z"/>
</g>
</svg>
