<?xml version="1.0" encoding="utf-8"?>
<!-- Generator: Adobe Illustrator 25.0.0, SVG Export Plug-In . SVG Version: 6.00 Build 0)  -->
<svg version="1.1" id="Layer_1" xmlns="http://www.w3.org/2000/svg" xmlns:xlink="http://www.w3.org/1999/xlink" x="0px" y="0px"
	 viewBox="0 0 612 792" style="enable-background:new 0 0 612 792;" xml:space="preserve">
<style type="text/css">
	.st0{opacity:0.6;}
	.st1{fill:#BDA581;}
	.st2{fill:none;}
	.st3{opacity:0.5;}
	.st4{fill:none;stroke:#000000;stroke-width:0.5;stroke-miterlimit:10;}
	.st5{opacity:0.91;}
</style>
<g class="st0">
	<g>
		<path class="st1" d="M378.94,411.56h-83.79c-7.21,0-13.06-5.85-13.06-13.06V291.48c0-7.21,5.85-13.06,13.06-13.06h83.79
			c7.21,0,13.06,5.85,13.06,13.06V398.5C392,405.71,386.16,411.56,378.94,411.56z"/>
	</g>
</g>
<g>
	<g>
		<g>
			<path d="M331.68,308.56h-0.01c-0.78,0.3-1.41,0.42-1.89,0.42c-0.88,0-1.34-0.39-1.53-1c0.04-0.2,0.05-0.41,0.05-0.58
				c0-0.15-0.01-0.3-0.04-0.42c-0.04-0.23-0.12-0.42-0.27-0.53c-0.09-0.07-0.19-0.11-0.28-0.11c-0.05,0-0.11,0.01-0.16,0.04
				c-0.16,0.09-0.27,0.3-0.27,0.6v0.05c0.01,0.23,0.09,0.53,0.26,0.84c0.04,0.08,0.08,0.16,0.13,0.23v0.03
				c0,0.09,0.03,0.22,0.03,0.31c0,0.04,0,0.07-0.01,0.09c-0.15,0.54-0.39,1.18-0.74,1.62c-0.22,0.27-0.69,0.59-1.08,0.59
				c-0.3,0-0.54-0.16-0.63-0.64c-0.03-0.16-0.05-0.34-0.07-0.5c-0.03-0.34-0.08-0.87-0.24-1.01c-0.07-0.16-0.2-0.31-0.37-0.31
				c-0.18,0-0.38,0.18-0.55,0.68c-0.43,0.81-1.18,3.81-2.08,3.81c-0.07,0-0.12-0.01-0.19-0.04c-0.11-0.07-0.15-0.2-0.15-0.41
				c0-1.27,1.85-4.87,2.07-5.66c0.05-0.14,0.08-0.24,0.08-0.35c0-0.31-0.27-0.46-0.57-0.46c-0.27,0-0.57,0.12-0.69,0.38
				c-0.01,0.01-0.54,1.24-1,2.68c-0.36,0.06-0.94,0.13-1.74,0.13c-0.38,0-0.81-0.01-1.28-0.05c-0.91-0.07-1.35-0.35-1.66-0.69
				c-0.09-0.36-0.26-0.58-0.49-0.68c-0.05-0.01-0.09-0.03-0.14-0.03c-0.08,0-0.15,0.03-0.22,0.08c-0.08,0.07-0.12,0.15-0.12,0.26
				c0,0.05,0,0.11,0.03,0.18c0,0.01,0.01,0.04,0.03,0.05c-0.3,0.19-0.66,0.66-0.96,1.12c-0.09,0.04-0.18,0.11-0.26,0.24
				c-0.01,0.03-5.11,8.21-7.1,8.21c-0.24,0-0.45-0.14-0.58-0.42c-0.09-0.2-0.15-0.53-0.15-0.95c0-1.27,0.48-3.53,1.42-6.59
				c0.01,0,0.01,0,0.02-0.01c0.08-0.07,0.12-0.18,0.12-0.28c0-0.01,0-0.01,0-0.02c1.67-1.18,5.43-6.78,5.43-9.19
				c0-0.2-0.03-0.38-0.08-0.53c-0.11-0.28-0.28-0.43-0.51-0.45h-0.01c-0.31,0-0.69,0.27-1.11,0.74c-0.37,0.43-0.8,1.05-1.23,1.8
				c-0.94,1.29-2.1,4.14-3,7.07c-0.03,0.01-0.07,0.01-0.1,0.03c-2.64,0.78-5.25,2.41-7.73,4.1c-1.89-3.12-7.04-7.04-7.04-10.75
				c0-1.87,1.3-3.66,4.96-5.29c1.97-0.87,4.62-1.65,6.44-1.65c0.47,0,0.89,0.05,1.22,0.18c1.04,0.38,1.42,1.18,1.42,2.15
				c0,2.62-2.76,6.46-2.77,6.48c0.01,0.41,0.27,0.59,0.57,0.59c0.27,0,0.55-0.15,0.72-0.42c0.01-0.01,2.18-3.54,2.18-6.33
				c0-1.32-0.49-2.46-1.92-2.99c-0.53-0.19-1.16-0.28-1.85-0.28c-1.57,0-3.47,0.46-5.27,1.26c-4.69,2.07-6.31,4.16-6.31,6.26
				c0,3.66,4.99,7.37,7.23,11.1c-1.62,1.14-6.07,5.02-6.87,6.91c-0.09,0.23-0.15,0.42-0.15,0.58c0,0.35,0.23,0.57,0.72,0.6h0.08
				c2.33,0,7.64-2.74,7.64-5.94c0-0.58-0.18-1.16-0.57-1.76c2.23-1.52,4.72-2.9,7.11-3.73c-0.65,2.31-1.1,4.56-1.1,6.02
				c0,0.54,0.05,0.99,0.19,1.27c0.22,0.43,0.51,0.62,0.88,0.62c1.7,0,4.8-4.03,6.54-6.5c-0.02,0.15-0.04,0.31-0.04,0.46
				c0,0.46,0.14,0.85,0.53,1.01c0.08,0.04,0.19,0.05,0.3,0.05c0.22,0,0.45-0.08,0.63-0.2c1.01-0.72,1.45-2.54,1.46-3.7
				c0.42,0.19,0.89,0.31,1.64,0.38c0.7,0.05,1.3,0.08,1.78,0.08c0.4,0,0.69-0.02,0.95-0.03c-0.28,0.96-0.5,1.95-0.5,2.7
				c0,0.57,0.13,1,0.47,1.16c0.12,0.05,0.23,0.08,0.35,0.08c1.38,0,2.64-3.61,2.73-3.92c0.04-0.11,0.03-0.2,0.04-0.2l0.01,0.01
				c0,0,0.01,0.18,0.03,0.38c0.09,1.18,0.59,1.66,1.2,1.66c0.53,0,1.15-0.38,1.64-1.01c0.38-0.49,0.66-1.09,0.84-1.69
				c0.45,0.43,1.12,0.7,2.04,0.7c0.42,0,0.91-0.07,1.45-0.19c0.15-0.03,0.26-0.23,0.26-0.39
				C331.84,308.64,331.79,308.56,331.68,308.56z M293.67,320.92c-0.12,0-0.24-0.01-0.37-0.03c-0.11-0.01-0.16-0.07-0.16-0.18
				c0-0.07,0.03-0.16,0.07-0.26c0.82-1.92,5.1-5.25,6.76-6.41c0.26,0.49,0.37,0.97,0.37,1.45
				C300.33,318.42,296.03,320.92,293.67,320.92z M311.29,302.09c0.42-0.72,0.83-1.31,1.18-1.72c0.31-0.35,0.55-0.57,0.69-0.57h0.01
				c0.03,0,0.05,0.04,0.09,0.12c0.01,0.04,0.03,0.09,0.03,0.16c0,1.43-3.72,7.44-4.56,8.21
				C309.37,306.51,310.45,303.52,311.29,302.09z M316.25,308.71c0,0.74-0.78,3.65-1.42,3.65c-0.03,0-0.05,0-0.08-0.01
				c-0.15-0.05-0.19-0.23-0.19-0.46c0-0.51,0.24-1.26,0.32-1.45c0.24-0.57,0.77-1.5,1.27-1.89c0.03,0.03,0.05,0.05,0.09,0.08v0.08
				H316.25z"/>
			<path d="M358.32,302.64c-0.45-0.08-0.91-0.11-1.38-0.11c-1.93,0-4.15,0.58-6.38,1.54c-0.33-0.05-0.62-0.08-0.88-0.12
				c-0.3-0.04-0.54-0.07-0.69-0.11c0.05-0.05,0.15-0.12,0.27-0.22c1.56-0.76,2.75-2.91,2.75-4.57c0-1.18-0.61-2.11-2.11-2.11
				c-0.13,0-0.28,0.01-0.43,0.03c0.28-0.87,0.46-1.37,0.46-1.38c0.01-0.08,0.03-0.15,0.03-0.22c0-0.34-0.19-0.51-0.43-0.51
				c-0.35,0-0.83,0.36-1.08,1.12c0,0.01,0.12,0.23,0.35,0.23c0.09,0,0.19-0.03,0.31-0.11c0.01-0.01,0.03-0.01,0.04-0.01
				s0.03,0.01,0.03,0.05c0,0.18-0.2,0.72-0.27,0.95c-2.75,1.24-4.69,6.79-6.08,11.83c-1.68,1.41-3.12,2.92-4.16,4.42
				c-1.16,1.68-1.68,3.15-1.68,4.38c0,2.95,2.91,4.57,6.54,4.57c3.81,0,8.44-1.78,11.33-5.68c1.23-1.65,1.87-3.64,1.87-5.56
				c0-3.06-1.64-5.91-5.11-6.77c1.68-0.99,3.26-1.46,4.71-1.46c0.66,0,1.31,0.11,1.93,0.3h0.03c0.15,0,0.26-0.12,0.26-0.24
				C358.52,302.79,358.45,302.69,358.32,302.64z M349.18,297.81c0.24-0.05,0.45-0.08,0.64-0.08c0.92,0,1.3,0.62,1.3,1.47
				c0,1.31-0.91,3.15-2.14,4.02c-0.31,0.22-0.47,0.39-0.54,0.53c-0.03,0.07-0.04,0.14-0.04,0.19c0,0.18,0.12,0.28,0.35,0.37
				c0.19,0.07,0.49,0.09,0.87,0.15l0.09,0.01c-1.2,0.57-2.39,1.24-3.54,1.99C347.38,303.06,348.48,299.9,349.18,297.81z
				 M348.57,298.06c-0.76,2.24-1.85,5.46-3.04,8.81c-0.7,0.47-1.39,0.97-2.04,1.5C344.77,303.88,346.83,299.42,348.57,298.06z
				 M342.92,310.43c0.08-0.27,0.15-0.54,0.22-0.81c0.7-0.58,1.22-1.12,2.01-1.69c-1.22,4.41-2.39,7.64-3.03,7.64
				c-0.03,0-0.04,0-0.07-0.01c-0.01-0.07-0.01-0.14-0.01-0.23c0-0.32,0.05-0.82,0.16-1.49
				C342.37,312.82,342.54,311.89,342.92,310.43z M356.35,311.31c0,1.74-0.57,3.54-1.7,5.07c-2.7,3.62-7.5,5.45-11.32,5.45
				c-3.15,0-5.62-1.26-5.62-3.79c0-1.12,0.49-2.5,1.61-4.12c0.91-1.3,1.76-2.49,3.16-3.73l-0.03,0.12
				c-0.39,1.47-0.57,2.42-0.73,3.45c-0.11,0.66-0.16,1.2-0.16,1.6c0,0.24,0.03,0.42,0.07,0.53c0.07,0.14,0.16,0.22,0.3,0.22
				c0.04,0.04,0.09,0.05,0.15,0.05c0.77,0,2.31-3.72,3.7-8.65c1.53-1.03,3.41-2.16,5.02-2.87
				C354.51,305.3,356.35,308.2,356.35,311.31z"/>
			<path d="M387.74,309.43c-0.05,0-0.12,0.01-0.18,0.08c-1.45,1.05-2.72,1.96-3.79,1.96c-0.83,0-1.54-0.53-2.14-1.89
				c-0.18-0.38-0.41-0.54-0.68-0.54c-0.59,0-1.37,0.85-2.12,1.84l0.92-3.07v-0.03c0-0.31-0.24-0.49-0.49-0.49
				c-0.2,0-0.41,0.12-0.47,0.39l-0.39,1.54l0,0c-0.03,0-0.15,0.12-0.31,0.14c-0.28,0.01-0.85,0.05-1.51,0.05c-1.5,0-3.5-0.2-4-1.31
				c-0.22-0.28-0.47-0.42-0.76-0.42c-0.65,0-1.42,0.72-1.95,1.84l0.66-1.64v-0.03c0-0.24-0.26-0.39-0.51-0.39
				c-0.22,0-0.43,0.09-0.53,0.35l-0.35,1.48c-0.45,0.36-3.02,2.37-4.01,2.37c-0.08,0-0.16-0.01-0.22-0.04
				c-0.31-0.16-0.41-0.66-0.41-1.23c0-0.91,0.24-1.93,0.24-1.95c0-0.35-0.28-0.66-0.53-0.66c-0.13,0-0.27,0.11-0.31,0.38
				c-0.04,0.76-2.16,3.76-2.97,3.97c-0.03,0-0.07,0.01-0.09,0.01c-0.2,0-0.3-0.18-0.3-0.46c0-0.77,0.65-2.35,1.69-3.92
				c0.01-0.05,0.01-0.09,0.01-0.14c0-0.35-0.34-0.61-0.66-0.61c-0.2,0-0.41,0.11-0.49,0.35c0,0.01-1.26,2.43-1.26,4.08
				c0,0.61,0.18,1.11,0.63,1.35c0.12,0.07,0.26,0.09,0.39,0.09c1.07,0,2.42-1.78,3.14-3.03v0.11c0,0.8,0.15,1.62,0.73,1.93
				c0.12,0.07,0.27,0.09,0.43,0.09c1.03,0,2.77-1.13,3.76-1.84l-0.58,2.44c0,0.01-0.01,0.03-0.01,0.05c0,0.14,0.27,0.23,0.51,0.23
				c0.2,0,0.39-0.07,0.39-0.23v-0.03c0.01-0.01,1.79-4.24,2.75-4.24c0.09,0,0.19,0.05,0.27,0.16c0.68,0.95,2.42,1.19,3.89,1.19
				c0.99,0,1.86-0.11,2.17-0.19l-0.84,3.35v0.05c0,0.18,0.16,0.26,0.35,0.26c0.22,0,0.47-0.09,0.55-0.27
				c0.03-0.28,2.01-3.07,2.7-3.07c0.08,0,0.15,0.05,0.19,0.18c0.62,1.38,1.49,1.85,2.41,1.85c1.47,0,3.1-1.22,4.18-2.07
				c0.08-0.04,0.12-0.11,0.12-0.18C388,309.56,387.88,309.43,387.74,309.43z"/>
		</g>
	</g>
</g>
<line class="st2" x1="264.26" y1="322.69" x2="361.39" y2="322.69"/>
<g class="st3">
	<g>
		<line class="st4" x1="287.11" y1="373.18" x2="384.24" y2="373.18"/>
	</g>
</g>
<g class="st3">
	<g>
		<line class="st4" x1="287.11" y1="332.41" x2="384.24" y2="332.41"/>
	</g>
</g>
<g class="st5">
	<g>
		<g>
			<path d="M313.95,387.67c-0.17,0.23-0.34,0.38-0.52,0.45s-0.41,0.11-0.7,0.11h-0.4c-0.36,0-0.58-0.06-0.66-0.17
				c-0.08-0.11-0.12-0.49-0.12-1.12v-1.27h0.59c0.23,0,0.39,0.02,0.49,0.05s0.17,0.1,0.22,0.2s0.08,0.3,0.08,0.6h0.19v-1.84h-0.19
				c0,0.26-0.02,0.44-0.05,0.53c-0.03,0.09-0.1,0.16-0.21,0.2s-0.29,0.07-0.55,0.07h-0.57v-2.25h0.74c0.38,0,0.65,0.02,0.82,0.06
				c0.17,0.04,0.31,0.14,0.44,0.3c0.12,0.16,0.23,0.42,0.31,0.8h0.19l-0.13-1.34h-3.84v0.18c0.26,0,0.43,0.03,0.51,0.08
				c0.08,0.05,0.13,0.14,0.15,0.27c0.02,0.13,0.03,0.4,0.03,0.81v2.63c0,0.45-0.01,0.73-0.03,0.84c-0.02,0.11-0.07,0.2-0.15,0.27
				c-0.08,0.07-0.25,0.11-0.52,0.11h-0.11v0.18h4.45l0.11-1.67h-0.19C314.25,387.13,314.12,387.44,313.95,387.67z"/>
			<path d="M317.86,386.43c-0.3-0.13-0.5-0.25-0.61-0.36c-0.11-0.1-0.16-0.23-0.16-0.37c0-0.13,0.05-0.24,0.15-0.34
				c0.1-0.1,0.23-0.15,0.38-0.15c0.21,0,0.38,0.09,0.54,0.26c0.15,0.17,0.25,0.38,0.31,0.62h0.15v-1h-0.15
				c-0.06,0.15-0.12,0.25-0.15,0.29c-0.18-0.23-0.42-0.34-0.7-0.34c-0.28,0-0.49,0.1-0.64,0.29c-0.15,0.19-0.23,0.4-0.23,0.61
				c0,0.22,0.07,0.41,0.21,0.57c0.14,0.16,0.38,0.31,0.71,0.48c0.31,0.15,0.52,0.28,0.63,0.39c0.11,0.11,0.16,0.25,0.16,0.42
				c0,0.15-0.05,0.28-0.15,0.4c-0.1,0.12-0.25,0.18-0.45,0.18c-0.46,0-0.78-0.31-0.96-0.92h-0.16v1.06h0.16
				c0.04-0.15,0.1-0.26,0.17-0.34c0.23,0.25,0.5,0.37,0.8,0.37c0.28,0,0.52-0.09,0.7-0.27c0.19-0.18,0.28-0.41,0.28-0.69
				c0-0.18-0.05-0.37-0.15-0.56C318.59,386.83,318.31,386.63,317.86,386.43z"/>
			<path d="M322.46,388.26c-0.1,0-0.19-0.03-0.27-0.1c-0.09-0.06-0.14-0.15-0.17-0.25c-0.03-0.1-0.04-0.31-0.04-0.61v-1.96h0.98
				v-0.18h-0.98v-1.02h-0.13c-0.05,0.32-0.16,0.57-0.33,0.74c-0.17,0.18-0.37,0.27-0.58,0.27v0.18h0.47v1.84
				c0,0.38,0.02,0.64,0.05,0.79c0.04,0.15,0.12,0.28,0.27,0.39c0.14,0.11,0.31,0.17,0.5,0.17c0.16,0,0.33-0.04,0.49-0.13
				c0.16-0.09,0.28-0.22,0.36-0.39l-0.13-0.08C322.81,388.15,322.65,388.26,322.46,388.26z"/>
			<path d="M325.72,387.68c-0.12,0-0.22,0.04-0.3,0.12c-0.08,0.08-0.12,0.18-0.12,0.3c0,0.11,0.04,0.21,0.12,0.3
				c0.08,0.09,0.18,0.13,0.3,0.13s0.22-0.04,0.3-0.12c0.08-0.08,0.13-0.18,0.13-0.3s-0.04-0.22-0.12-0.3
				C325.95,387.73,325.84,387.68,325.72,387.68z"/>
			<path d="M335.36,385.41c0.14-0.27,0.21-0.56,0.21-0.86c0-0.48-0.16-0.85-0.48-1.09c-0.32-0.25-0.67-0.37-1.07-0.37
				c-0.37,0-0.72,0.12-1.03,0.35c-0.31,0.24-0.47,0.56-0.47,0.96c0,0.25,0.06,0.46,0.17,0.62c0.11,0.16,0.21,0.24,0.29,0.24
				c0.06,0,0.13-0.04,0.22-0.12c0.09-0.08,0.13-0.15,0.13-0.19c0-0.03-0.04-0.07-0.12-0.13c-0.21-0.15-0.32-0.35-0.32-0.6
				c0-0.22,0.08-0.43,0.25-0.63c0.17-0.2,0.4-0.29,0.7-0.29c0.31,0,0.56,0.11,0.77,0.32c0.21,0.21,0.31,0.54,0.31,1
				c0,0.38-0.1,0.75-0.3,1.12s-0.54,0.81-1,1.32c-0.46,0.51-0.84,0.88-1.14,1.11v0.25h2.33c0.15,0,0.24,0.01,0.28,0.02
				c0.03,0.01,0.05,0.06,0.05,0.14c0,0.04,0,0.08-0.01,0.11c-0.02,0.05-0.02,0.1-0.02,0.14h0.19l0.23-0.89h-2.52
				c0.33-0.28,0.78-0.7,1.33-1.26C334.87,386.1,335.21,385.69,335.36,385.41z"/>
			<path d="M339.72,383.09c-0.51,0-0.92,0.25-1.23,0.74c-0.31,0.5-0.47,1.16-0.47,1.98s0.16,1.48,0.47,1.98s0.72,0.75,1.23,0.75
				s0.92-0.25,1.23-0.75s0.47-1.16,0.47-1.97c0-0.82-0.16-1.48-0.47-1.98S340.23,383.09,339.72,383.09z M340.53,387.81
				c-0.15,0.35-0.42,0.53-0.81,0.53c-0.33,0-0.58-0.15-0.77-0.45s-0.28-0.99-0.28-2.09s0.09-1.8,0.28-2.09
				c0.18-0.29,0.44-0.44,0.76-0.44s0.58,0.15,0.76,0.44c0.18,0.3,0.28,0.99,0.28,2.09C340.76,386.79,340.68,387.46,340.53,387.81z"
				/>
			<path d="M345.83,388.15c-0.07-0.05-0.1-0.12-0.11-0.21c-0.01-0.09-0.01-0.31-0.01-0.65v-4.2h-0.17
				c-0.22,0.17-0.56,0.27-1.01,0.27v0.18h0.17c0.19,0,0.31,0.03,0.37,0.09s0.09,0.12,0.1,0.2s0.01,0.29,0.01,0.65v2.82
				c0,0.36,0,0.58-0.01,0.66c-0.01,0.08-0.04,0.14-0.1,0.19s-0.18,0.08-0.37,0.08h-0.13v0.18h1.78v-0.18h-0.15
				C346.01,388.22,345.9,388.2,345.83,388.15z"/>
			<path d="M352.3,385.62c-0.31-0.32-0.68-0.48-1.11-0.48c-0.2,0-0.39,0.05-0.57,0.15s-0.35,0.24-0.52,0.44
				c-0.01-0.08-0.01-0.15-0.01-0.21c0-0.74,0.1-1.3,0.31-1.67c0.21-0.37,0.52-0.55,0.94-0.55c0.18,0,0.32,0.03,0.42,0.1
				c0.09,0.07,0.18,0.17,0.26,0.32s0.18,0.22,0.31,0.22c0.15,0,0.23-0.07,0.23-0.22c0-0.16-0.11-0.3-0.33-0.43
				c-0.22-0.12-0.48-0.19-0.77-0.19c-0.62,0-1.11,0.28-1.48,0.85c-0.37,0.57-0.55,1.27-0.55,2.11c0,0.41,0.05,0.8,0.17,1.17
				c0.11,0.38,0.3,0.69,0.57,0.94c0.27,0.25,0.61,0.38,1,0.38c0.47,0,0.85-0.17,1.15-0.51s0.45-0.74,0.45-1.2
				C352.77,386.34,352.61,385.94,352.3,385.62z M351.86,387.95c-0.16,0.26-0.41,0.4-0.74,0.4c-0.21,0-0.4-0.07-0.57-0.22
				c-0.17-0.15-0.29-0.34-0.36-0.6c-0.07-0.25-0.11-0.51-0.11-0.76c0-0.54,0.1-0.92,0.31-1.12c0.21-0.21,0.45-0.31,0.72-0.31
				c0.2,0,0.39,0.06,0.55,0.19s0.28,0.28,0.34,0.47s0.09,0.45,0.09,0.78C352.1,387.3,352.02,387.69,351.86,387.95z"/>
		</g>
	</g>
</g>
<g class="st5">
	<g>
		<g>
			<path d="M304.39,398.7l-2.01-2.03l0.98-0.9c0.38-0.36,0.64-0.59,0.78-0.7c0.14-0.11,0.29-0.2,0.46-0.27
				c0.17-0.07,0.33-0.1,0.5-0.11v-0.18h-2.02v0.18c0.38,0.01,0.57,0.12,0.57,0.34c0,0.15-0.19,0.39-0.57,0.73l-1.64,1.48v-1.39
				c0-0.45,0.01-0.73,0.04-0.85c0.03-0.12,0.08-0.2,0.16-0.24c0.08-0.04,0.25-0.06,0.52-0.06h0.1v-0.18h-2.38v0.18
				c0.3,0,0.49,0.02,0.57,0.06c0.08,0.04,0.14,0.12,0.16,0.25c0.02,0.13,0.04,0.4,0.04,0.85v2.63c0,0.45-0.01,0.73-0.04,0.86
				c-0.03,0.12-0.08,0.21-0.17,0.27s-0.25,0.09-0.48,0.09h-0.17v0.18h2.41v-0.18h-0.1c-0.24,0-0.41-0.03-0.49-0.09
				c-0.09-0.06-0.14-0.16-0.16-0.29c-0.02-0.13-0.03-0.41-0.03-0.83v-0.98l0.38-0.34l1.52,1.53c0.38,0.38,0.57,0.63,0.57,0.74
				c0,0.07-0.04,0.14-0.11,0.19c-0.07,0.05-0.26,0.08-0.56,0.08h-0.11v0.18h2.79v-0.18c-0.25,0-0.45-0.05-0.61-0.15
				C305.15,399.45,304.85,399.17,304.39,398.7z"/>
			<path d="M308.49,395.27c0.11,0,0.21-0.04,0.29-0.12c0.08-0.08,0.12-0.18,0.12-0.3c0-0.11-0.04-0.21-0.12-0.29
				c-0.08-0.08-0.18-0.12-0.29-0.12c-0.11,0-0.21,0.04-0.29,0.12s-0.12,0.18-0.12,0.29c0,0.12,0.04,0.22,0.12,0.3
				S308.38,395.27,308.49,395.27z"/>
			<path d="M308.97,399.63c-0.07-0.05-0.1-0.12-0.11-0.21c-0.01-0.09-0.02-0.31-0.02-0.65v-2.26h-0.09
				c-0.26,0.09-0.62,0.16-1.09,0.21v0.18h0.11c0.15,0,0.25,0.01,0.31,0.03s0.11,0.07,0.14,0.16c0.04,0.08,0.05,0.32,0.05,0.7v0.98
				c0,0.36,0,0.58-0.01,0.66c-0.01,0.08-0.04,0.14-0.1,0.19s-0.18,0.08-0.37,0.08h-0.13v0.18h1.75v-0.18h-0.08
				C309.16,399.7,309.04,399.67,308.97,399.63z"/>
			<path d="M312.91,399.73c-0.1,0-0.19-0.03-0.27-0.1c-0.09-0.06-0.14-0.15-0.17-0.25c-0.03-0.1-0.04-0.31-0.04-0.61v-1.96h0.98
				v-0.18h-0.98v-1.01h-0.13c-0.05,0.32-0.16,0.57-0.33,0.74c-0.17,0.18-0.37,0.27-0.58,0.27v0.18h0.47v1.84
				c0,0.38,0.02,0.64,0.05,0.79c0.04,0.15,0.12,0.28,0.27,0.39c0.14,0.11,0.31,0.17,0.5,0.17c0.16,0,0.33-0.04,0.49-0.13
				c0.16-0.09,0.28-0.22,0.36-0.39l-0.13-0.08C313.27,399.63,313.1,399.73,312.91,399.73z"/>
			<path d="M316.9,399.73c-0.1,0-0.19-0.03-0.27-0.1c-0.09-0.06-0.14-0.15-0.17-0.25c-0.03-0.1-0.04-0.31-0.04-0.61v-1.96h0.98
				v-0.18h-0.98v-1.01h-0.13c-0.05,0.32-0.16,0.57-0.33,0.74c-0.17,0.18-0.37,0.27-0.58,0.27v0.18h0.47v1.84
				c0,0.38,0.02,0.64,0.05,0.79c0.04,0.15,0.12,0.28,0.27,0.39c0.14,0.11,0.31,0.17,0.5,0.17c0.16,0,0.33-0.04,0.49-0.13
				c0.16-0.09,0.28-0.22,0.36-0.39l-0.13-0.08C317.25,399.63,317.09,399.73,316.9,399.73z"/>
			<path d="M322.39,397.73c-0.01-0.3-0.14-0.58-0.37-0.84c-0.23-0.26-0.56-0.39-0.99-0.39c-0.45,0-0.83,0.17-1.13,0.51
				s-0.45,0.77-0.45,1.28c0,0.36,0.08,0.67,0.23,0.92c0.16,0.25,0.36,0.45,0.6,0.59c0.24,0.14,0.5,0.21,0.78,0.21
				c0.3,0,0.57-0.08,0.82-0.23c0.25-0.15,0.42-0.36,0.5-0.63h-0.19c-0.2,0.43-0.54,0.65-1.02,0.65c-0.35,0-0.62-0.14-0.8-0.43
				c-0.18-0.29-0.27-0.71-0.27-1.28c0-0.08,0-0.19,0.02-0.35L322.39,397.73L322.39,397.73z M321.01,396.68c0.2,0,0.37,0.06,0.5,0.19
				s0.2,0.31,0.2,0.54c0,0.05,0,0.1-0.01,0.16h-1.55C320.24,396.98,320.53,396.68,321.01,396.68z"/>
			<path d="M326.7,396.51c-0.19,0-0.39,0.08-0.59,0.24c-0.2,0.16-0.35,0.35-0.44,0.59c-0.01-0.34-0.05-0.62-0.13-0.83
				c-0.4,0.13-0.73,0.2-0.97,0.23v0.18h0.08c0.17,0,0.29,0.02,0.35,0.07c0.07,0.05,0.1,0.12,0.11,0.21s0.01,0.31,0.01,0.66v0.91
				c0,0.37-0.01,0.6-0.02,0.68s-0.05,0.14-0.12,0.18s-0.18,0.07-0.34,0.07h-0.08v0.18h1.72v-0.18h-0.11c-0.17,0-0.29-0.02-0.35-0.07
				c-0.07-0.05-0.1-0.12-0.11-0.21s-0.01-0.31-0.01-0.65v-0.58c0-0.29,0.02-0.52,0.07-0.68c0.04-0.17,0.15-0.33,0.3-0.48
				c0.15-0.15,0.29-0.23,0.41-0.23c0.1,0,0.17,0.07,0.21,0.2c0.07,0.2,0.17,0.29,0.3,0.29c0.07,0,0.14-0.03,0.19-0.08
				c0.05-0.06,0.08-0.12,0.08-0.2c0-0.11-0.05-0.22-0.15-0.33C327.01,396.56,326.88,396.51,326.7,396.51z"/>
			<path d="M331.48,396.82c0.29,0.01,0.44,0.07,0.44,0.21c0,0.03-0.05,0.18-0.16,0.44l-0.75,1.8l-0.89-1.9
				c-0.1-0.22-0.15-0.35-0.15-0.39c0-0.1,0.13-0.15,0.39-0.16v-0.18h-1.49v0.18c0.17,0,0.29,0.03,0.36,0.09
				c0.07,0.06,0.16,0.21,0.27,0.44l1.22,2.61l-0.31,0.77c-0.05,0.13-0.11,0.22-0.16,0.27s-0.16,0.11-0.32,0.18
				c-0.27,0.12-0.41,0.28-0.41,0.46c0,0.16,0.09,0.23,0.26,0.23c0.13,0,0.24-0.06,0.35-0.18c0.11-0.12,0.23-0.35,0.36-0.68
				l1.45-3.49c0.12-0.29,0.22-0.48,0.3-0.57c0.08-0.09,0.21-0.13,0.39-0.14v-0.18h-1.14v0.19H331.48z"/>
			<path d="M335.18,399.16c-0.12,0-0.22,0.04-0.3,0.12c-0.08,0.08-0.12,0.18-0.12,0.3c0,0.11,0.04,0.21,0.12,0.27
				c0.08,0.06,0.18,0.1,0.3,0.1c0.03,0,0.07-0.01,0.11-0.02c0.05-0.01,0.08-0.02,0.1-0.02c0.11,0,0.17,0.09,0.17,0.26
				c0,0.21-0.08,0.41-0.23,0.62c-0.16,0.2-0.37,0.35-0.65,0.43v0.2c0.35-0.09,0.62-0.26,0.83-0.51c0.21-0.25,0.31-0.55,0.31-0.88
				c0-0.23-0.06-0.43-0.18-0.61S335.37,399.16,335.18,399.16z"/>
			<path d="M345.3,398.95l-1.97-4.44h-1.63v0.18h0.15c0.27,0,0.45,0.02,0.53,0.07c0.08,0.05,0.13,0.13,0.16,0.26
				c0.03,0.12,0.04,0.4,0.04,0.83v2.34c0,0.44-0.02,0.75-0.05,0.91c-0.03,0.16-0.12,0.3-0.26,0.41c-0.14,0.11-0.33,0.17-0.56,0.19
				v0.18h1.92v-0.18c-0.25-0.02-0.44-0.08-0.58-0.2c-0.14-0.12-0.22-0.25-0.25-0.41c-0.03-0.16-0.04-0.45-0.04-0.88v-3.14l2.14,4.81
				h0.19l2.13-4.81v3.42c0,0.45-0.01,0.73-0.04,0.86c-0.03,0.12-0.08,0.21-0.17,0.27c-0.09,0.06-0.25,0.09-0.47,0.09h-0.19v0.18
				h2.57v-0.18h-0.24c-0.24,0-0.41-0.03-0.49-0.09c-0.09-0.06-0.14-0.16-0.16-0.29c-0.02-0.13-0.03-0.41-0.03-0.83v-2.63
				c0-0.45,0.01-0.73,0.04-0.85c0.03-0.12,0.08-0.2,0.16-0.24c0.08-0.04,0.25-0.06,0.52-0.06h0.2v-0.18h-1.65L345.3,398.95z"/>
			<path d="M353.92,399.67c-0.11,0-0.17-0.04-0.21-0.13c-0.03-0.09-0.05-0.28-0.05-0.59v-1.31c0-0.28-0.03-0.48-0.09-0.62
				c-0.06-0.13-0.18-0.25-0.37-0.36s-0.44-0.16-0.78-0.16c-0.45,0-0.78,0.09-1,0.26c-0.22,0.17-0.32,0.33-0.32,0.48
				c0,0.15,0.08,0.23,0.24,0.23c0.18,0,0.29-0.13,0.33-0.4c0.04-0.26,0.26-0.4,0.66-0.4c0.2,0,0.36,0.04,0.48,0.12
				c0.12,0.08,0.2,0.17,0.23,0.27c0.03,0.1,0.04,0.26,0.04,0.49v0.16l-0.61,0.25c-0.47,0.19-0.83,0.39-1.1,0.59
				c-0.27,0.2-0.4,0.44-0.4,0.71c0,0.21,0.08,0.38,0.24,0.5c0.16,0.13,0.35,0.19,0.57,0.19c0.17,0,0.37-0.05,0.58-0.14
				c0.22-0.09,0.46-0.24,0.72-0.42c0.03,0.19,0.1,0.33,0.2,0.42c0.1,0.1,0.25,0.14,0.42,0.14c0.42,0,0.64-0.23,0.67-0.68h-0.15
				C354.2,399.55,354.09,399.67,353.92,399.67z M353.1,399.18c-0.2,0.16-0.39,0.29-0.55,0.37s-0.31,0.12-0.43,0.12
				c-0.14,0-0.25-0.05-0.34-0.15c-0.09-0.1-0.13-0.24-0.13-0.4c0-0.42,0.34-0.77,1.02-1.04l0.43-0.17V399.18z"/>
			<path d="M357.53,399.63c-0.07-0.05-0.1-0.12-0.11-0.21c-0.01-0.09-0.02-0.31-0.02-0.65v-2.26h-0.09
				c-0.26,0.09-0.62,0.16-1.09,0.21v0.18h0.11c0.15,0,0.25,0.01,0.31,0.03s0.11,0.07,0.14,0.16c0.04,0.08,0.05,0.32,0.05,0.7v0.98
				c0,0.36,0,0.58-0.01,0.66c-0.01,0.08-0.04,0.14-0.1,0.19s-0.18,0.08-0.37,0.08h-0.13v0.18h1.75v-0.18h-0.08
				C357.72,399.7,357.6,399.67,357.53,399.63z"/>
			<path d="M357.05,395.27c0.11,0,0.21-0.04,0.29-0.12c0.08-0.08,0.12-0.18,0.12-0.3c0-0.11-0.04-0.21-0.12-0.29
				c-0.08-0.08-0.18-0.12-0.29-0.12c-0.11,0-0.21,0.04-0.29,0.12s-0.12,0.18-0.12,0.29c0,0.12,0.04,0.22,0.12,0.3
				S356.94,395.27,357.05,395.27z"/>
			<path d="M363.37,399.45c-0.01-0.08-0.02-0.31-0.02-0.68v-1.01c0-0.3-0.02-0.53-0.07-0.69s-0.15-0.29-0.32-0.4
				c-0.16-0.11-0.38-0.16-0.63-0.16c-0.23,0-0.45,0.06-0.65,0.17c-0.2,0.11-0.41,0.28-0.6,0.5c-0.01-0.28-0.04-0.51-0.1-0.67h-0.11
				c-0.3,0.09-0.6,0.15-0.89,0.18v0.18c0.19,0,0.32,0.02,0.39,0.06s0.11,0.1,0.13,0.18s0.02,0.31,0.02,0.69v0.97
				c0,0.4-0.01,0.63-0.03,0.71c-0.02,0.08-0.06,0.13-0.13,0.17s-0.2,0.06-0.38,0.06v0.18h1.64v-0.18c-0.19,0-0.32-0.02-0.39-0.06
				s-0.11-0.1-0.13-0.18c-0.01-0.08-0.02-0.31-0.02-0.68v-1.32c0.16-0.23,0.32-0.4,0.5-0.52c0.17-0.11,0.36-0.17,0.55-0.17
				c0.17,0,0.31,0.04,0.42,0.13c0.11,0.09,0.18,0.18,0.2,0.29c0.02,0.11,0.04,0.29,0.04,0.55v1.04c0,0.36,0,0.58-0.01,0.65
				s-0.04,0.14-0.1,0.19c-0.06,0.06-0.18,0.08-0.37,0.08h-0.08v0.18h1.66v-0.18c-0.19,0-0.32-0.02-0.39-0.06
				C363.42,399.6,363.38,399.53,363.37,399.45z"/>
			<path d="M367.7,399.8c-0.35,0-0.62-0.14-0.8-0.43c-0.18-0.29-0.27-0.71-0.27-1.28c0-0.08,0-0.19,0.02-0.35h2.26
				c-0.01-0.3-0.14-0.58-0.37-0.84c-0.23-0.26-0.56-0.39-0.99-0.39c-0.45,0-0.83,0.17-1.13,0.51s-0.45,0.77-0.45,1.28
				c0,0.36,0.08,0.67,0.23,0.92c0.16,0.25,0.36,0.45,0.6,0.59c0.24,0.14,0.5,0.21,0.78,0.21c0.3,0,0.57-0.08,0.82-0.23
				c0.25-0.15,0.42-0.36,0.5-0.63h-0.19C368.52,399.58,368.18,399.8,367.7,399.8z M367.53,396.68c0.2,0,0.37,0.06,0.5,0.19
				s0.2,0.31,0.2,0.54c0,0.05,0,0.1-0.01,0.16h-1.55C366.76,396.98,367.05,396.68,367.53,396.68z"/>
		</g>
	</g>
</g>
<g>
	<g>
		<g>
			<path d="M303.94,348.68c-0.1-0.07-0.16-0.18-0.18-0.32c-0.02-0.14-0.04-0.45-0.04-0.92V346h3.11v1.44c0,0.5-0.01,0.81-0.04,0.95
				c-0.03,0.14-0.09,0.24-0.19,0.3c-0.1,0.06-0.27,0.1-0.53,0.1h-0.21v0.2h2.71v-0.2h-0.14c-0.27,0-0.45-0.04-0.54-0.11
				c-0.1-0.07-0.16-0.18-0.18-0.32c-0.02-0.14-0.03-0.45-0.03-0.92v-2.92c0-0.5,0.01-0.81,0.05-0.94c0.03-0.13,0.09-0.22,0.18-0.27
				c0.09-0.05,0.28-0.07,0.58-0.07h0.09v-0.2h-2.71v0.2h0.16c0.3,0,0.5,0.03,0.59,0.08c0.09,0.05,0.15,0.15,0.17,0.29
				s0.04,0.44,0.04,0.92v1.18h-3.11v-1.18c0-0.5,0.01-0.81,0.05-0.94c0.03-0.13,0.09-0.22,0.18-0.27c0.09-0.05,0.28-0.07,0.57-0.07
				h0.11v-0.2h-2.68v0.2h0.11c0.3,0,0.5,0.03,0.59,0.08c0.09,0.05,0.15,0.15,0.18,0.29c0.03,0.14,0.04,0.44,0.04,0.92v2.92
				c0,0.5-0.01,0.81-0.04,0.95c-0.03,0.14-0.09,0.24-0.19,0.3c-0.1,0.06-0.28,0.1-0.53,0.1h-0.15v0.2h2.68v-0.2h-0.15
				C304.22,348.78,304.04,348.75,303.94,348.68z"/>
			<path d="M312.71,346.86c-0.52,0.21-0.92,0.43-1.22,0.66c-0.29,0.23-0.44,0.49-0.44,0.79c0,0.23,0.09,0.42,0.26,0.56
				c0.17,0.14,0.38,0.21,0.63,0.21c0.19,0,0.41-0.05,0.65-0.16c0.24-0.11,0.51-0.26,0.8-0.47c0.04,0.21,0.11,0.36,0.23,0.47
				c0.12,0.11,0.27,0.16,0.47,0.16c0.46,0,0.71-0.25,0.74-0.75h-0.16c-0.05,0.29-0.17,0.43-0.36,0.43c-0.12,0-0.19-0.05-0.23-0.15
				c-0.04-0.1-0.05-0.31-0.05-0.65v-1.45c0-0.31-0.03-0.54-0.1-0.69s-0.2-0.28-0.41-0.4c-0.21-0.12-0.49-0.18-0.87-0.18
				c-0.5,0-0.87,0.1-1.11,0.29s-0.36,0.37-0.36,0.54s0.09,0.25,0.27,0.25c0.2,0,0.32-0.15,0.37-0.45c0.05-0.29,0.29-0.44,0.73-0.44
				c0.22,0,0.4,0.04,0.53,0.13s0.22,0.19,0.25,0.3c0.03,0.11,0.05,0.29,0.05,0.54v0.18L312.71,346.86z M313.39,348.21
				c-0.23,0.18-0.43,0.32-0.61,0.41s-0.34,0.14-0.48,0.14c-0.16,0-0.28-0.06-0.38-0.17c-0.1-0.11-0.15-0.26-0.15-0.45
				c0-0.47,0.38-0.85,1.13-1.16l0.48-0.19v1.42H313.39z"/>
			<path d="M320.74,348.51c-0.02-0.09-0.02-0.34-0.02-0.76v-1.12c0-0.33-0.03-0.59-0.08-0.76s-0.17-0.32-0.35-0.44
				s-0.42-0.18-0.71-0.18c-0.25,0-0.49,0.06-0.73,0.18c-0.24,0.12-0.45,0.31-0.66,0.56c-0.01-0.31-0.05-0.56-0.12-0.74h-0.12
				c-0.34,0.1-0.67,0.17-0.99,0.2v0.2c0.21,0,0.36,0.02,0.43,0.07c0.08,0.05,0.12,0.11,0.14,0.2c0.02,0.09,0.02,0.34,0.02,0.76v1.07
				c0,0.44-0.01,0.7-0.03,0.78c-0.02,0.08-0.07,0.15-0.15,0.19c-0.08,0.04-0.22,0.06-0.42,0.06v0.2h1.82v-0.2
				c-0.21,0-0.36-0.02-0.43-0.07c-0.08-0.04-0.12-0.11-0.14-0.2c-0.02-0.09-0.02-0.34-0.02-0.76v-1.47
				c0.17-0.25,0.36-0.45,0.55-0.57c0.2-0.13,0.4-0.19,0.61-0.19c0.19,0,0.34,0.05,0.46,0.14c0.12,0.09,0.2,0.2,0.22,0.32
				c0.03,0.12,0.04,0.32,0.04,0.61v1.16c0,0.4,0,0.64-0.01,0.73c-0.01,0.08-0.05,0.15-0.11,0.22s-0.2,0.09-0.41,0.09h-0.08v0.2h1.84
				v-0.2c-0.21,0-0.35-0.02-0.43-0.07C320.8,348.67,320.75,348.6,320.74,348.51z"/>
			<path d="M327.33,348.55c-0.01-0.09-0.02-0.35-0.02-0.76v-4.84h-0.09c-0.42,0.11-0.81,0.18-1.16,0.18v0.2h0.09
				c0.19,0,0.32,0.03,0.39,0.08s0.12,0.13,0.13,0.23s0.01,0.34,0.01,0.73v1.41c-0.19-0.18-0.4-0.31-0.62-0.4
				c-0.22-0.09-0.45-0.13-0.69-0.13c-0.48,0-0.89,0.18-1.23,0.54c-0.35,0.36-0.52,0.84-0.52,1.42c0,0.53,0.17,0.99,0.51,1.36
				c0.34,0.38,0.74,0.56,1.21,0.56c0.25,0,0.48-0.05,0.71-0.16c0.23-0.11,0.45-0.27,0.67-0.49c0,0.3,0.02,0.51,0.05,0.65
				c0.33-0.07,0.71-0.11,1.13-0.11v-0.2c-0.21,0-0.36-0.02-0.43-0.07C327.39,348.7,327.35,348.64,327.33,348.55z M326.68,348.23
				c-0.16,0.21-0.34,0.37-0.53,0.47s-0.4,0.16-0.62,0.16c-0.33,0-0.61-0.14-0.84-0.42c-0.23-0.28-0.34-0.71-0.34-1.3
				c0-0.58,0.11-0.99,0.33-1.25c0.22-0.25,0.5-0.38,0.83-0.38c0.2,0,0.39,0.04,0.59,0.12c0.2,0.08,0.39,0.21,0.58,0.38V348.23
				L326.68,348.23z"/>
			<path d="M332.12,348.9c-0.43,0-0.75-0.16-0.96-0.48c-0.21-0.32-0.32-0.76-0.32-1.33c0-0.55,0.1-0.96,0.3-1.23
				c0.2-0.27,0.49-0.41,0.89-0.41c0.22,0,0.37,0.03,0.44,0.1s0.13,0.19,0.16,0.36c0.04,0.23,0.16,0.34,0.36,0.34
				c0.09,0,0.16-0.03,0.21-0.1c0.05-0.06,0.07-0.13,0.07-0.21c0-0.2-0.13-0.36-0.39-0.5s-0.55-0.2-0.86-0.2
				c-0.52,0-0.96,0.18-1.34,0.55s-0.57,0.84-0.57,1.43c0,0.57,0.18,1.04,0.53,1.38c0.35,0.35,0.78,0.52,1.29,0.52
				c0.8,0,1.29-0.34,1.49-1.02h-0.19C333.07,348.63,332.7,348.9,332.12,348.9z"/>
			<path d="M338.07,345.24c-0.21,0-0.43,0.09-0.66,0.26c-0.22,0.18-0.39,0.39-0.49,0.65c-0.01-0.38-0.06-0.69-0.14-0.92
				c-0.45,0.14-0.81,0.23-1.08,0.26v0.2h0.09c0.19,0,0.32,0.03,0.39,0.08s0.12,0.13,0.13,0.23s0.01,0.34,0.01,0.73v1.02
				c0,0.42-0.01,0.67-0.02,0.76c-0.01,0.09-0.06,0.16-0.13,0.2c-0.08,0.05-0.2,0.07-0.38,0.07h-0.09v0.2h1.91v-0.2h-0.12
				c-0.19,0-0.32-0.03-0.39-0.08s-0.11-0.13-0.12-0.23s-0.02-0.34-0.02-0.73v-0.64c0-0.32,0.03-0.58,0.08-0.76s0.16-0.36,0.34-0.53
				s0.33-0.26,0.45-0.26c0.11,0,0.18,0.07,0.24,0.22c0.08,0.22,0.19,0.33,0.33,0.33c0.08,0,0.15-0.03,0.21-0.09s0.09-0.13,0.09-0.22
				c0-0.13-0.06-0.25-0.17-0.37C338.42,345.3,338.27,345.24,338.07,345.24z"/>
			<path d="M344.12,348.76c-0.12,0-0.19-0.05-0.23-0.15c-0.04-0.1-0.05-0.31-0.05-0.65v-1.45c0-0.31-0.03-0.54-0.1-0.69
				s-0.2-0.28-0.41-0.4c-0.21-0.12-0.49-0.18-0.87-0.18c-0.5,0-0.87,0.1-1.11,0.29s-0.36,0.37-0.36,0.54s0.09,0.25,0.27,0.25
				c0.2,0,0.32-0.15,0.37-0.45c0.05-0.29,0.29-0.44,0.73-0.44c0.22,0,0.4,0.04,0.53,0.13s0.22,0.19,0.25,0.3
				c0.03,0.11,0.05,0.29,0.05,0.54v0.18l-0.68,0.28c-0.52,0.21-0.92,0.43-1.22,0.66c-0.29,0.23-0.44,0.49-0.44,0.79
				c0,0.23,0.09,0.42,0.26,0.56c0.17,0.14,0.38,0.21,0.63,0.21c0.19,0,0.41-0.05,0.65-0.16c0.24-0.11,0.51-0.26,0.8-0.47
				c0.04,0.21,0.11,0.36,0.23,0.47c0.12,0.11,0.27,0.16,0.47,0.16c0.46,0,0.71-0.25,0.74-0.75h-0.16
				C344.43,348.61,344.31,348.76,344.12,348.76z M343.21,348.21c-0.23,0.18-0.43,0.32-0.61,0.41s-0.34,0.14-0.48,0.14
				c-0.16,0-0.28-0.06-0.38-0.17c-0.1-0.11-0.15-0.26-0.15-0.45c0-0.47,0.38-0.85,1.13-1.16l0.48-0.19v1.42H343.21z"/>
			<path d="M347.31,348.54c-0.02,0.08-0.07,0.15-0.14,0.19c-0.08,0.04-0.22,0.06-0.42,0.06v0.2h1.95v-0.2h-0.19
				c-0.19,0-0.32-0.03-0.39-0.08s-0.12-0.13-0.13-0.23s-0.01-0.34-0.01-0.73v-2.16h0.75v-0.2h-0.75v-0.27
				c0-0.66,0.01-1.08,0.04-1.28c0.03-0.2,0.11-0.37,0.25-0.5s0.3-0.2,0.49-0.2c0.23,0,0.41,0.13,0.56,0.4
				c0.13,0.24,0.27,0.36,0.43,0.36c0.08,0,0.15-0.03,0.21-0.08s0.09-0.13,0.09-0.21c0-0.15-0.1-0.3-0.31-0.44
				c-0.21-0.14-0.49-0.22-0.83-0.22c-0.28,0-0.53,0.06-0.74,0.17c-0.21,0.11-0.38,0.28-0.51,0.49c-0.14,0.21-0.22,0.42-0.25,0.62
				c-0.03,0.2-0.04,0.48-0.04,0.84v0.33h-0.67v0.2h0.67v2.16C347.34,348.19,347.33,348.45,347.31,348.54z"/>
			<path d="M353.38,348.55l-0.14-0.08c-0.16,0.24-0.34,0.36-0.55,0.36c-0.11,0-0.21-0.04-0.3-0.11c-0.1-0.07-0.16-0.16-0.19-0.28
				c-0.03-0.12-0.04-0.34-0.04-0.67v-2.18h1.08v-0.2h-1.08v-1.13h-0.14c-0.05,0.35-0.17,0.63-0.37,0.83c-0.2,0.2-0.41,0.3-0.65,0.3
				v0.2h0.52v2.04c0,0.42,0.02,0.71,0.06,0.88c0.04,0.17,0.14,0.31,0.3,0.44c0.16,0.12,0.34,0.19,0.56,0.19
				c0.18,0,0.36-0.05,0.54-0.15C353.16,348.89,353.29,348.74,353.38,348.55z"/>
			<path d="M358.79,346.6c-0.01-0.33-0.15-0.64-0.41-0.93s-0.62-0.43-1.09-0.43c-0.5,0-0.92,0.19-1.25,0.56
				c-0.33,0.38-0.5,0.85-0.5,1.42c0,0.4,0.09,0.74,0.26,1.02c0.17,0.28,0.39,0.5,0.67,0.65c0.27,0.15,0.56,0.23,0.86,0.23
				c0.33,0,0.63-0.08,0.91-0.25c0.28-0.17,0.46-0.4,0.56-0.7h-0.21c-0.22,0.48-0.6,0.72-1.13,0.72c-0.39,0-0.69-0.16-0.89-0.48
				s-0.3-0.79-0.3-1.43c0-0.08,0-0.21,0.02-0.39h2.5V346.6z M357.25,345.43c0.22,0,0.41,0.07,0.56,0.21
				c0.15,0.14,0.23,0.34,0.23,0.6c0,0.05,0,0.11-0.01,0.18h-1.72C356.4,345.77,356.72,345.43,357.25,345.43z"/>
			<path d="M364.97,348.55c-0.01-0.09-0.02-0.35-0.02-0.76v-4.84h-0.09c-0.42,0.11-0.81,0.18-1.16,0.18v0.2h0.09
				c0.19,0,0.32,0.03,0.39,0.08s0.12,0.13,0.13,0.23s0.01,0.34,0.01,0.73v1.41c-0.19-0.18-0.4-0.31-0.62-0.4
				c-0.22-0.09-0.45-0.13-0.69-0.13c-0.48,0-0.89,0.18-1.23,0.54c-0.35,0.36-0.52,0.84-0.52,1.42c0,0.53,0.17,0.99,0.51,1.36
				c0.34,0.38,0.74,0.56,1.21,0.56c0.25,0,0.48-0.05,0.71-0.16c0.23-0.11,0.45-0.27,0.67-0.49c0,0.3,0.02,0.51,0.05,0.65
				c0.33-0.07,0.71-0.11,1.13-0.11v-0.2c-0.21,0-0.36-0.02-0.43-0.07C365.03,348.7,364.98,348.64,364.97,348.55z M364.31,348.23
				c-0.16,0.21-0.34,0.37-0.53,0.47s-0.4,0.16-0.62,0.16c-0.33,0-0.61-0.14-0.84-0.42c-0.23-0.28-0.34-0.71-0.34-1.3
				c0-0.58,0.11-0.99,0.33-1.25c0.22-0.25,0.5-0.38,0.83-0.38c0.2,0,0.39,0.04,0.59,0.12c0.2,0.08,0.39,0.21,0.58,0.38V348.23
				L364.31,348.23z"/>
			<path d="M296.67,360.36c-0.23-0.14-0.61-0.32-1.12-0.55c-0.54-0.24-0.91-0.46-1.11-0.65c-0.21-0.19-0.31-0.42-0.31-0.7
				c0-0.23,0.08-0.44,0.25-0.63c0.17-0.19,0.42-0.29,0.78-0.29c0.37,0,0.7,0.13,0.98,0.39c0.28,0.26,0.48,0.62,0.59,1.07h0.19v-1.56
				h-0.19c-0.02,0.19-0.09,0.36-0.23,0.52c-0.23-0.26-0.46-0.43-0.69-0.51c-0.23-0.08-0.46-0.12-0.71-0.12
				c-0.45,0-0.82,0.14-1.12,0.42c-0.29,0.28-0.44,0.64-0.44,1.06c0,0.28,0.07,0.54,0.2,0.79c0.14,0.25,0.33,0.45,0.57,0.6
				c0.24,0.15,0.6,0.33,1.08,0.54c0.54,0.23,0.91,0.44,1.11,0.64c0.2,0.2,0.3,0.45,0.3,0.75s-0.12,0.56-0.35,0.8
				c-0.23,0.24-0.55,0.36-0.97,0.36c-0.93,0-1.52-0.62-1.77-1.87h-0.22v1.92h0.22c0.05-0.25,0.12-0.44,0.21-0.58
				c0.44,0.5,0.98,0.75,1.63,0.75c0.57,0,1.02-0.16,1.36-0.48c0.34-0.32,0.51-0.73,0.51-1.24c0-0.32-0.07-0.61-0.21-0.85
				C297.07,360.7,296.9,360.49,296.67,360.36z"/>
			<path d="M301.99,363.31c-0.43,0-0.75-0.16-0.96-0.48c-0.21-0.32-0.32-0.76-0.32-1.33c0-0.55,0.1-0.96,0.3-1.23
				c0.2-0.27,0.49-0.41,0.89-0.41c0.22,0,0.37,0.03,0.44,0.1s0.13,0.19,0.16,0.36c0.04,0.23,0.16,0.34,0.36,0.34
				c0.09,0,0.16-0.03,0.21-0.1c0.05-0.06,0.07-0.13,0.07-0.21c0-0.2-0.13-0.36-0.39-0.5s-0.55-0.2-0.86-0.2
				c-0.52,0-0.96,0.18-1.34,0.55s-0.57,0.84-0.57,1.43c0,0.57,0.18,1.04,0.53,1.38c0.35,0.35,0.78,0.52,1.29,0.52
				c0.8,0,1.29-0.34,1.49-1.02h-0.19C302.94,363.05,302.57,363.31,301.99,363.31z"/>
			<path d="M308.89,361.02c-0.01-0.33-0.15-0.64-0.41-0.93s-0.62-0.43-1.09-0.43c-0.5,0-0.92,0.19-1.25,0.56
				c-0.33,0.38-0.5,0.85-0.5,1.42c0,0.4,0.09,0.74,0.26,1.02c0.17,0.28,0.39,0.5,0.67,0.65c0.27,0.15,0.56,0.23,0.86,0.23
				c0.33,0,0.63-0.08,0.91-0.25c0.28-0.17,0.46-0.4,0.56-0.7h-0.21c-0.22,0.48-0.6,0.72-1.13,0.72c-0.39,0-0.69-0.16-0.89-0.48
				s-0.3-0.79-0.3-1.43c0-0.08,0-0.21,0.02-0.39h2.5V361.02z M307.35,359.85c0.22,0,0.41,0.07,0.56,0.21
				c0.15,0.14,0.23,0.34,0.23,0.6c0,0.05,0,0.11-0.01,0.18h-1.72C306.5,360.18,306.82,359.85,307.35,359.85z"/>
			<path d="M315.06,362.92c-0.02-0.09-0.02-0.34-0.02-0.76v-1.12c0-0.33-0.03-0.59-0.08-0.76s-0.17-0.32-0.35-0.44
				s-0.42-0.18-0.71-0.18c-0.25,0-0.49,0.06-0.73,0.18c-0.24,0.12-0.45,0.31-0.66,0.56c-0.01-0.31-0.05-0.56-0.12-0.74h-0.12
				c-0.34,0.1-0.67,0.17-0.99,0.2v0.2c0.21,0,0.36,0.02,0.43,0.07c0.08,0.05,0.12,0.11,0.14,0.2c0.02,0.09,0.02,0.34,0.02,0.76v1.07
				c0,0.44-0.01,0.7-0.03,0.78c-0.02,0.08-0.07,0.15-0.15,0.19c-0.08,0.04-0.22,0.06-0.42,0.06v0.2h1.82v-0.2
				c-0.21,0-0.36-0.02-0.43-0.07c-0.08-0.04-0.12-0.11-0.14-0.2c-0.02-0.09-0.02-0.34-0.02-0.76v-1.47
				c0.17-0.25,0.36-0.45,0.55-0.57c0.2-0.13,0.4-0.19,0.61-0.19c0.19,0,0.34,0.05,0.46,0.14c0.12,0.09,0.2,0.2,0.22,0.32
				c0.03,0.12,0.04,0.32,0.04,0.61v1.16c0,0.4,0,0.64-0.01,0.73c-0.01,0.08-0.05,0.15-0.11,0.22s-0.2,0.09-0.41,0.09h-0.08v0.2h1.84
				v-0.2c-0.21,0-0.35-0.02-0.43-0.07C315.12,363.08,315.07,363.01,315.06,362.92z"/>
			<path d="M319.54,363.24c-0.11,0-0.21-0.04-0.3-0.11c-0.1-0.07-0.16-0.16-0.19-0.28c-0.03-0.12-0.04-0.34-0.04-0.67V360h1.08v-0.2
				h-1.08v-1.13h-0.14c-0.05,0.35-0.17,0.63-0.37,0.83c-0.2,0.2-0.41,0.3-0.65,0.3v0.2h0.52v2.04c0,0.42,0.02,0.71,0.06,0.88
				c0.04,0.17,0.14,0.31,0.3,0.44c0.16,0.12,0.34,0.19,0.56,0.19c0.18,0,0.36-0.05,0.54-0.15s0.31-0.24,0.4-0.44l-0.14-0.08
				C319.93,363.12,319.75,363.24,319.54,363.24z"/>
			<path d="M325.64,361.02c-0.01-0.33-0.15-0.64-0.41-0.93s-0.62-0.43-1.09-0.43c-0.5,0-0.92,0.19-1.25,0.56
				c-0.33,0.38-0.5,0.85-0.5,1.42c0,0.4,0.09,0.74,0.26,1.02c0.17,0.28,0.39,0.5,0.67,0.65c0.27,0.15,0.56,0.23,0.86,0.23
				c0.33,0,0.63-0.08,0.91-0.25c0.28-0.17,0.46-0.4,0.56-0.7h-0.21c-0.22,0.48-0.6,0.72-1.13,0.72c-0.39,0-0.69-0.16-0.89-0.48
				s-0.3-0.79-0.3-1.43c0-0.08,0-0.21,0.02-0.39h2.5V361.02z M324.1,359.85c0.22,0,0.41,0.07,0.56,0.21
				c0.15,0.14,0.23,0.34,0.23,0.6c0,0.05,0,0.11-0.01,0.18h-1.72C323.25,360.18,323.56,359.85,324.1,359.85z"/>
			<path d="M331.81,362.96c-0.01-0.09-0.02-0.35-0.02-0.76v-4.84h-0.09c-0.42,0.11-0.81,0.18-1.16,0.18v0.2h0.09
				c0.19,0,0.32,0.03,0.39,0.08s0.12,0.13,0.13,0.23s0.01,0.34,0.01,0.73v1.41c-0.19-0.18-0.4-0.31-0.62-0.4
				c-0.22-0.09-0.45-0.13-0.69-0.13c-0.48,0-0.89,0.18-1.23,0.54c-0.35,0.36-0.52,0.84-0.52,1.42c0,0.53,0.17,0.99,0.51,1.36
				c0.34,0.38,0.74,0.56,1.21,0.56c0.25,0,0.48-0.05,0.71-0.16c0.23-0.11,0.45-0.27,0.67-0.49c0,0.3,0.02,0.51,0.05,0.65
				c0.33-0.07,0.71-0.11,1.13-0.11v-0.2c-0.21,0-0.36-0.02-0.43-0.07C331.87,363.12,331.83,363.05,331.81,362.96z M331.16,362.65
				c-0.16,0.21-0.34,0.37-0.53,0.47s-0.4,0.16-0.62,0.16c-0.33,0-0.61-0.14-0.84-0.42c-0.23-0.28-0.34-0.71-0.34-1.3
				c0-0.58,0.11-0.99,0.33-1.25c0.22-0.25,0.5-0.38,0.83-0.38c0.2,0,0.39,0.04,0.59,0.12c0.2,0.08,0.39,0.21,0.58,0.38V362.65
				L331.16,362.65z"/>
			<path d="M341.82,357.55c0.51,0,0.97,0.16,1.37,0.47c0.41,0.31,0.67,0.87,0.81,1.67h0.19l-0.05-2.26h-0.19
				c-0.03,0.27-0.1,0.52-0.23,0.77c-0.18-0.22-0.45-0.43-0.81-0.61s-0.77-0.27-1.21-0.27c-0.54,0-1.03,0.13-1.48,0.38
				s-0.8,0.64-1.05,1.16s-0.38,1.07-0.38,1.66c0,0.9,0.27,1.62,0.82,2.16s1.25,0.82,2.11,0.82c0.81,0,1.48-0.3,2.01-0.89
				c0.14,0.18,0.23,0.39,0.29,0.63h0.19v-2.09h-0.19c-0.04,0.35-0.15,0.7-0.34,1.07c-0.2,0.37-0.46,0.63-0.79,0.79
				s-0.66,0.23-0.98,0.23c-0.6,0-1.1-0.24-1.5-0.71c-0.4-0.48-0.6-1.16-0.6-2.05c0-0.94,0.18-1.67,0.55-2.18
				C340.7,357.81,341.2,357.55,341.82,357.55z"/>
			<path d="M350.19,363.17c-0.12,0-0.19-0.05-0.23-0.15c-0.04-0.1-0.05-0.31-0.05-0.65v-1.45c0-0.31-0.03-0.54-0.1-0.69
				s-0.2-0.28-0.41-0.4c-0.21-0.12-0.49-0.18-0.87-0.18c-0.5,0-0.87,0.1-1.11,0.29s-0.36,0.37-0.36,0.54s0.09,0.25,0.27,0.25
				c0.2,0,0.32-0.15,0.37-0.45c0.05-0.29,0.29-0.44,0.73-0.44c0.22,0,0.4,0.04,0.53,0.13s0.22,0.19,0.25,0.3
				c0.03,0.11,0.05,0.29,0.05,0.54v0.18l-0.68,0.28c-0.52,0.21-0.92,0.43-1.22,0.66c-0.29,0.23-0.44,0.49-0.44,0.79
				c0,0.23,0.09,0.42,0.26,0.56c0.17,0.14,0.38,0.21,0.63,0.21c0.19,0,0.41-0.05,0.65-0.16c0.24-0.11,0.51-0.26,0.8-0.47
				c0.04,0.21,0.11,0.36,0.23,0.47c0.12,0.11,0.27,0.16,0.47,0.16c0.46,0,0.71-0.25,0.74-0.75h-0.15
				C350.5,363.03,350.38,363.17,350.19,363.17z M349.28,362.62c-0.23,0.18-0.43,0.32-0.61,0.41s-0.34,0.14-0.48,0.14
				c-0.16,0-0.28-0.06-0.38-0.17c-0.1-0.11-0.15-0.26-0.15-0.45c0-0.47,0.38-0.85,1.13-1.16l0.48-0.19v1.42H349.28z"/>
			<path d="M356.63,362.92c-0.02-0.09-0.02-0.34-0.02-0.76v-1.12c0-0.33-0.03-0.59-0.08-0.76s-0.17-0.32-0.35-0.44
				s-0.42-0.18-0.71-0.18c-0.25,0-0.49,0.06-0.73,0.18c-0.24,0.12-0.45,0.31-0.66,0.56c-0.01-0.31-0.05-0.56-0.12-0.74h-0.12
				c-0.34,0.1-0.67,0.17-0.99,0.2v0.2c0.21,0,0.36,0.02,0.43,0.07c0.08,0.05,0.12,0.11,0.14,0.2c0.02,0.09,0.02,0.34,0.02,0.76v1.07
				c0,0.44-0.01,0.7-0.03,0.78c-0.02,0.08-0.07,0.15-0.15,0.19c-0.08,0.04-0.22,0.06-0.42,0.06v0.2h1.82v-0.2
				c-0.21,0-0.36-0.02-0.43-0.07c-0.08-0.04-0.12-0.11-0.14-0.2c-0.02-0.09-0.02-0.34-0.02-0.76v-1.47
				c0.17-0.25,0.36-0.45,0.55-0.57c0.2-0.13,0.4-0.19,0.61-0.19c0.19,0,0.34,0.05,0.46,0.14c0.12,0.09,0.2,0.2,0.22,0.32
				c0.03,0.12,0.04,0.32,0.04,0.61v1.16c0,0.4,0,0.64-0.01,0.73c-0.01,0.08-0.05,0.15-0.11,0.22s-0.2,0.09-0.41,0.09h-0.08v0.2h1.84
				v-0.2c-0.21,0-0.35-0.02-0.43-0.07C356.69,363.08,356.64,363.01,356.63,362.92z"/>
			<path d="M363.22,362.96c-0.01-0.09-0.02-0.35-0.02-0.76v-4.84h-0.09c-0.42,0.11-0.81,0.18-1.16,0.18v0.2h0.09
				c0.19,0,0.32,0.03,0.39,0.08s0.12,0.13,0.13,0.23s0.01,0.34,0.01,0.73v1.41c-0.19-0.18-0.4-0.31-0.62-0.4
				c-0.22-0.09-0.45-0.13-0.69-0.13c-0.48,0-0.89,0.18-1.23,0.54c-0.35,0.36-0.52,0.84-0.52,1.42c0,0.53,0.17,0.99,0.51,1.36
				c0.34,0.38,0.74,0.56,1.21,0.56c0.25,0,0.48-0.05,0.71-0.16c0.23-0.11,0.45-0.27,0.67-0.49c0,0.3,0.02,0.51,0.05,0.65
				c0.33-0.07,0.71-0.11,1.13-0.11v-0.2c-0.21,0-0.36-0.02-0.43-0.07C363.28,363.12,363.23,363.05,363.22,362.96z M362.56,362.65
				c-0.16,0.21-0.34,0.37-0.53,0.47s-0.4,0.16-0.62,0.16c-0.33,0-0.61-0.14-0.84-0.42c-0.23-0.28-0.34-0.71-0.34-1.3
				c0-0.58,0.11-0.99,0.33-1.25c0.22-0.25,0.5-0.38,0.83-0.38c0.2,0,0.39,0.04,0.59,0.12c0.2,0.08,0.39,0.21,0.58,0.38V362.65
				L362.56,362.65z"/>
			<path d="M367.2,363.12c-0.07-0.05-0.12-0.13-0.12-0.23c-0.01-0.1-0.02-0.34-0.02-0.73v-4.81h-0.1c-0.09,0.04-0.26,0.08-0.5,0.12
				s-0.45,0.06-0.63,0.06v0.2c0.26,0,0.42,0.05,0.49,0.15s0.1,0.34,0.1,0.71v3.56c0,0.42-0.01,0.67-0.02,0.76
				c-0.01,0.09-0.06,0.16-0.13,0.2c-0.07,0.05-0.2,0.07-0.38,0.07h-0.12v0.2h1.93v-0.2h-0.11
				C367.4,363.2,367.27,363.17,367.2,363.12z"/>
			<path d="M373.23,361.02c-0.01-0.33-0.15-0.64-0.41-0.93s-0.62-0.43-1.09-0.43c-0.5,0-0.92,0.19-1.25,0.56
				c-0.33,0.38-0.5,0.85-0.5,1.42c0,0.4,0.09,0.74,0.26,1.02c0.17,0.28,0.39,0.5,0.67,0.65c0.27,0.15,0.56,0.23,0.86,0.23
				c0.33,0,0.63-0.08,0.91-0.25c0.28-0.17,0.46-0.4,0.56-0.7h-0.21c-0.22,0.48-0.6,0.72-1.13,0.72c-0.39,0-0.69-0.16-0.89-0.48
				s-0.3-0.79-0.3-1.43c0-0.08,0-0.21,0.02-0.39h2.5V361.02z M371.69,359.85c0.22,0,0.41,0.07,0.56,0.21
				c0.15,0.14,0.23,0.34,0.23,0.6c0,0.05,0,0.11-0.01,0.18h-1.72C370.84,360.18,371.16,359.85,371.69,359.85z"/>
			<path d="M377.91,361.86c-0.11-0.21-0.42-0.43-0.91-0.66c-0.33-0.15-0.55-0.28-0.67-0.4c-0.12-0.11-0.18-0.25-0.18-0.41
				c0-0.14,0.05-0.27,0.16-0.38c0.11-0.11,0.25-0.16,0.43-0.16c0.23,0,0.43,0.1,0.6,0.29c0.17,0.19,0.28,0.42,0.34,0.69h0.16v-1.11
				h-0.16c-0.07,0.17-0.13,0.28-0.17,0.32c-0.21-0.25-0.46-0.38-0.78-0.38c-0.31,0-0.55,0.11-0.72,0.32
				c-0.17,0.21-0.26,0.44-0.26,0.68c0,0.25,0.08,0.46,0.24,0.63c0.16,0.17,0.42,0.35,0.78,0.53c0.35,0.17,0.58,0.31,0.7,0.44
				c0.12,0.12,0.18,0.27,0.18,0.46c0,0.16-0.05,0.31-0.17,0.44c-0.11,0.13-0.28,0.2-0.5,0.2c-0.51,0-0.87-0.34-1.07-1.02h-0.17v1.18
				h0.17c0.05-0.16,0.11-0.29,0.19-0.38c0.26,0.27,0.55,0.41,0.88,0.41c0.31,0,0.57-0.1,0.78-0.29c0.21-0.2,0.31-0.45,0.31-0.76
				C378.07,362.29,378.02,362.08,377.91,361.86z"/>
		</g>
	</g>
</g>
</svg>
