<?xml version="1.0" encoding="utf-8"?>
<!-- Generator: Adobe Illustrator 25.0.0, SVG Export Plug-In . SVG Version: 6.00 Build 0)  -->
<svg version="1.1" id="Layer_1" xmlns="http://www.w3.org/2000/svg" xmlns:xlink="http://www.w3.org/1999/xlink" x="0px" y="0px"
	 viewBox="0 0 2500 1186" style="enable-background:new 0 0 2500 1186;" xml:space="preserve">
<path d="M268.1,428.37V93.26c0-12.42,1.24-19.86,22.35-19.86h284.22c49.65,0,76.96,42.21,96.82,121.64l16.13,63.31h48.4
	C744.71,78.38,752.15,0.18,752.15,0.18S630.52,13.83,558.53,13.83H194.89L-0.01,7.62v52.13l65.8,12.41
	c45.92,8.69,57.07,18.61,60.83,60.83c0,0,3.73,124.11,3.73,328.92c0,204.78-3.73,327.67-3.73,327.67c0,37.23-14.9,50.88-60.83,59.59
	l-65.8,12.42v52.1l194.9-6.19h325.19c73.23,0,243.27,6.19,243.27,6.19c3.71-44.69,28.55-247.01,32.27-269.32H749.7l-48.41,110.47
	c-38.48,86.86-94.32,93.08-156.4,93.08H359.94c-62.06,0-91.85-24.83-91.85-78.19v-283c0,0,135.29,0,182.44,3.73
	c34.76,2.49,55.85,12.42,67.03,60.82l14.9,64.54h53.34l-3.71-162.61l7.44-163.82h-53.36l-17.37,71.98
	c-11.19,47.16-18.62,55.87-67.03,60.82c-54.6,6.22-183.7,4.98-183.7,4.98v1.23h0.02L268.1,428.37L268.1,428.37z M1004.12,128.02
	c-17.38,76.95-34.76,136.52-95.58,176.25c-37.23,24.81-74.47,33.49-89.35,34.74v47.16h110.46V767.2
	c0,106.76,70.76,158.9,165.08,158.9c73.24,0,148.93-31.03,175.01-95.59L1243.66,797c-12.42,21.11-52.11,52.13-101.77,52.13
	c-54.6,0-84.39-37.24-84.39-131.55V381.23l183.71,13.66l9.92-84.42l-193.62,7.45V129.25L1004.12,128.02L1004.12,128.02z
	 M1396.34,714.11l-47.16,1.24c2.48,27.3,3.73,62.06,3.73,94.33c0,33.51-1.24,64.54-3.73,79.43c0,0,94.33,34.72,189.9,34.72
	c129.08,0,232.11-62.06,232.11-183.69c0-208.49-312.78-177.46-312.78-317.73c0-58.33,52.12-80.68,109.22-80.68
	c44.68,0,81.91,16.13,89.36,39.74l31.04,93.09l45.93-2.48c3.73-49.65,6.2-106.75,13.66-152.67
	c-39.73-17.38-122.9-27.33-174.99-27.33c-121.67,0-219.7,53.38-219.7,172.54c0,207.27,305.32,165.07,305.32,317.76
	c0,54.59-33.53,93.07-109.22,93.07c-69.49,0-104.26-35.98-117.88-72L1396.34,714.11L1396.34,714.11z M2144.43,857.5
	c-71.86,200.72-159.82,252.72-239.1,252.72c-33.47,0-49.56-14.88-54.54-38.38l-18.58-96.66l-52.04,2.48
	c-9.91,57-19.82,120.21-33.43,172.23c30.98,23.51,82.98,35.92,123.89,35.92c85.51,0,215.58-11.17,334.49-293.63l199.48-470.78
	c16.12-38.42,22.29-42.13,69.37-60.73l26.02-9.89v-43.36l-117.71,6.19l-126.36-6.19v43.36l32.19,9.89
	c32.2,9.93,47.1,22.31,47.1,44.62c0,11.14-3.73,22.3-9.94,39.63c-18.58,47.11-133.8,327.09-164.74,386.58l30.93-11.17
	c-54.52-135.04-137.49-360.54-149.89-398.91c-2.48-7.44-3.72-13.63-3.72-19.86c0-19.81,13.63-35.92,43.37-42.11l40.89-8.65v-43.36
	l-169.75,6.19l-135.04-6.19v43.36l22.31,7.43c30.97,9.91,38.41,18.59,56.99,61.95c102.8,235.41,151.15,364.23,216.78,532.75
	L2144.43,857.5L2144.43,857.5z"/>
</svg>
