<?xml version="1.0" encoding="utf-8"?>
<!-- Generator: Adobe Illustrator 25.0.0, SVG Export Plug-In . SVG Version: 6.00 Build 0)  -->
<svg version="1.1" id="Papyrus_Logo" xmlns="http://www.w3.org/2000/svg" xmlns:xlink="http://www.w3.org/1999/xlink" x="0px"
	 y="0px" viewBox="0 0 516 217" style="enable-background:new 0 0 516 217;" xml:space="preserve">
<path d="M495.23,18.51c0.24-2.86-0.75-5.14-1.97-6.15c-1.22-1.01-4.65-1.33-10.38,1.28c-5.73,2.61-15.12,8.34-23.27,15.48
	c-8.15,7.15-14.58,14.05-17.94,18.22c-3.49,4.33-10.73,14.7-10.86,14.61c-0.12-0.09,0.49-2.01,1.15-3.47
	c0.81-1.75,2.03-3.57,2.03-3.57s-1.1-0.01-2.61-0.05c-1.51-0.04-3.67-1.12-5.2-2.1c-1.55-1-3.94-3.87-8.72-4.26
	c-4.11-0.34-7.51,2.57-9.04,5.2c-1.35,2.34-2.04,4.86-5.01,8.9c-2.97,4.04-9.95,6.2-19.08,12.02c-9.4,5.99-12.53,10.45-12.34,10.68
	c0.19,0.22,5.32-3.22,9.78-6.04c5-3.16,10.39-6.13,14.45-7.99c4.06-1.86,10.68-4.62,17.83-3.23c7.15,1.39,9.34,9.32,10.49,12.3
	c1.15,2.98,3.56,8.79,7.72,12.96c4.16,4.17,7.73,5.48,7.73,5.48s-1.83,1-2.84,1.77c-1.01,0.78-3.48,2.77-4.42,4.12
	c-0.78,1.12-1.55,2.76-0.8,3.67c0.75,0.92,3.07,1.12,3.07,1.12s-0.82,0.62-1.71,1.5c-0.89,0.87-2.43,3.16-3.16,4.88
	c-0.73,1.72-0.87,3.96,0.22,5.03c1.09,1.07,3.77,0.54,3.77,0.54s-0.67,1.17-1.24,2.24c-0.72,1.35-1.94,4.04-1.98,6.15
	c-0.04,2.1,0.98,3.8,2.55,3.81c1.57,0.01,3.75-2.05,3.75-2.05s-1.11,2.92-1.51,5.52c-0.39,2.6-0.32,6.82-0.17,8.42
	c0.15,1.6,1.05,3.81,2.43,3.91c1.38,0.1,2.49-1.49,3.44-3.22c0.95-1.72,3.69-8.71,5.52-16.3c1.83-7.59,4-19.52,4.12-29.98
	c0.12-10.46-1-24.63-1-24.63s2.64,0.26,3.87-0.08c1.23-0.34,2.48-1.2,3.12-2.93c0.56-1.5-0.01-3.64-0.01-3.64s5.37,0.37,8.11-0.74
	c2.74-1.12,4.54-2.93,4.58-4.69c0.04-1.76-0.61-3.68-0.61-3.68s1.98-0.08,3.3-0.48c1.32-0.4,6.11-2.42,7.59-4.2
	c1.49-1.78,1.78-3.63,1.35-4.83c-0.44-1.2-1.15-1.84-1.15-1.84s3.46-1.91,5.32-3.32c1.86-1.4,4.64-4.22,5.25-6.35
	c0.61-2.13,0.52-4.36-0.6-5.65c-1.12-1.29-2.82-1.91-2.82-1.91s1.77-1.84,3.22-3.53C492.05,25.68,495,21.36,495.23,18.51z
	 M412.42,60.14c-1.04,0-1.87-0.85-1.86-1.89c0-1.04,0.85-1.87,1.88-1.86c1.04,0.01,1.87,0.85,1.87,1.88
	C414.3,59.31,413.45,60.15,412.42,60.14z M449.4,66.08c-2.14-0.78-3.7-1.89-3.48-2.48c0.22-0.59,2.12-0.44,4.26,0.34
	c2.14,0.78,3.7,1.89,3.48,2.48C453.45,67,451.54,66.85,449.4,66.08z M457.63,59.81c-3.47,0.03-6.29-0.51-6.29-1.2
	c-0.01-0.69,2.8-1.28,6.27-1.31c3.47-0.03,6.29,0.51,6.29,1.2C463.9,59.19,461.1,59.78,457.63,59.81z M464.67,51.6
	c-5.47,0.97-10.04,1.02-10.2,0.12c-0.16-0.9,4.15-2.42,9.61-3.38c5.47-0.97,10.03-1.02,10.19-0.12
	C474.44,49.12,470.14,50.64,464.67,51.6z M470.4,39.78c-6.51,3.04-12.16,4.7-12.62,3.71c-0.46-0.99,4.44-4.26,10.94-7.3
	c6.51-3.04,12.16-4.7,12.63-3.71C481.8,33.47,476.9,36.74,470.4,39.78z"/>
<path d="M155.65,133.06c-6.12,0-23.69,0-23.69,0v53.85h6.32v-18.95c0,0,7.96,0,16.68,0c9.41,0,17.61-7.16,17.61-18.3
	C172.57,138.23,162.37,133.06,155.65,133.06z M153.73,162.22c-6.83,0-15.46,0-15.46,0V138.7c0,0,9.96,0,15.41,0
	c5.45,0,12.56,3.75,12.56,11.28C166.24,157.57,160.56,162.22,153.73,162.22z"/>
<path d="M50.25,133.06c-6.12,0-23.69,0-23.69,0v53.85h6.32v-18.95c0,0,7.96,0,16.68,0c9.41,0,17.6-7.16,17.6-18.3
	C67.17,138.23,56.98,133.06,50.25,133.06z M48.33,162.22c-6.83,0-15.46,0-15.46,0V138.7c0,0,9.96,0,15.41,0
	c5.45,0,12.56,3.75,12.56,11.28C60.84,157.57,55.16,162.22,48.33,162.22z"/>
<path d="M282.75,186.91l-16.79-22.39c7.43-1.87,14.04-7.34,14.04-16.33c0-11.43-10.48-15.12-17.98-15.12c-6.12,0-24.17,0-24.17,0
	v53.85h6.33v-21.66c0,0,6.49,0,14.58,0l15.9,21.66H282.75z M244.15,159.51V138.7c0,0,9.96,0,15.41,0c6.39,0,14.1,2.28,14.1,9.82
	c0,7.59-6.28,10.99-14.06,10.99C252.78,159.51,244.15,159.51,244.15,159.51z"/>
<path d="M115.36,186.91h7.39l-24.66-54.62h-6.03l-25.28,54.62h7l6.58-14.57h28.63L115.36,186.91z M82.8,166.92l12.07-26.74
	l11.73,26.74H82.8z"/>
<polygon points="226.97,133.07 226.96,133.06 219.3,133.06 201.77,158.68 184.23,133.06 176.57,133.06 176.57,133.07 198.22,164.69 
	198.22,186.91 204.79,186.91 204.79,165.47 "/>
<path d="M333.18,133.11c0,0,0,27.56,0,33.45c0,5.76-5.32,14.7-15.6,15.12c-0.07,0-0.13-0.01-0.2-0.01
	c-10.77,0-16.34-9.26-16.34-15.16c0-5.9,0-33.45,0-33.45h-6.56c0,0,0,24.56,0,33.81c0,8.2,6.19,19.55,20.81,20.54
	c0.48,0.07,0.99,0.13,1.55,0.13c16.13,0,22.9-12.04,22.9-20.62c0-9.25,0-33.81,0-33.81H333.18z"/>
<path d="M387,143.83l3.81-4.91c0,0-7.19-7.37-18.81-7.37c-12.38,0-18.39,8.46-18.39,15.63c0,9.03,7.88,12.94,16.21,14.91
	c8.33,1.97,16.11,3.59,16.11,10.91c0,6.77-7.07,8.58-12.27,8.58c-7.3,0-12.46-3.52-17.93-7.85l-4.08,4.77c0,0,8.28,9.15,22.16,9.15
	c13.64,0,19.08-8.23,19.08-15.96c0-10.58-10.9-13.79-20.36-15.79c-9.16-1.94-12.2-5.23-12.2-9.28c0-4.28,3.72-9.06,11.24-9.06
	C379.09,137.57,385.62,142.89,387,143.83z"/>
</svg>
