<?xml version="1.0" encoding="utf-8"?>
<!-- Generator: Adobe Illustrator 25.0.0, SVG Export Plug-In . SVG Version: 6.00 Build 0)  -->
<svg version="1.1" id="Layer_1" xmlns="http://www.w3.org/2000/svg" xmlns:xlink="http://www.w3.org/1999/xlink" x="0px" y="0px"
	 viewBox="0 0 792 612" style="enable-background:new 0 0 792 612;" xml:space="preserve">
<path d="M121.38,329.67c-6.27-11.05-11.35-27.17-11.35-38.52s2.91-10.75,5.67-10.75s10.38,5.82,14.18,13.44l2.02-1.57l-10.94-28.29
	H85.51l-10.94,28.29l2.02,1.57c3.81-7.61,11.42-13.44,14.18-13.44s5.67-0.6,5.67,10.75s-5.08,27.47-11.35,38.52H121.38z"/>
<path d="M130.34,329.67c6.49-10.3,10.53-24.04,10.53-32.85s0-18.36-8.96-32.85h40.09c8.06,0,10.97,8.72,10.97,14.25
	s-2.46,11.13-10.97,17.18c3.81,12.54,10.97,25.53,16.57,31.35v2.91h-22.84c3.36-11.87-1.79-30.46-9.41-30.46
	c-7.61,0-4.26,20.38,1.79,30.46H130.34z M153.85,274.12v19.71c9.41-2.02,11.87-6.27,11.87-11.87
	C165.72,276.36,159,274.12,153.85,274.12z"/>
<path d="M375.35,329.67c6.49-10.3,10.53-24.04,10.53-32.85s0-18.36-8.96-32.85h40.09c8.06,0,10.97,8.72,10.97,14.25
	s-2.46,11.13-10.97,17.18c3.81,12.54,10.97,25.53,16.57,31.35v2.91h-22.84c3.36-11.87-1.79-30.46-9.41-30.46s-4.26,20.38,1.79,30.46
	H375.35z M398.87,274.12v19.71c9.41-2.02,11.87-6.27,11.87-11.87C410.74,276.36,404.02,274.12,398.87,274.12z"/>
<path d="M191.48,329.67c5.76-13.82,17.92-45.02,17.92-56.89v-8.81h26.88v9.93c0,14.11,12.09,37.85,20.6,55.77h-22.84
	c1.12-10.75-4.7-23.07-12.54-23.07s-10.53,11.2-8.06,23.07H191.48z M230,298.76c-3.58-4.93-5.82-9.63-7.61-17.25
	c-0.9,3.29-3.81,12.77-6.49,17.25H230z"/>
<path d="M287.11,329.67h-27.77c6.49-10.3,10.53-24.04,10.53-32.85s0-18.36-8.96-32.85h26.65c8.06,0,28.33,8.51,28.33,32.85
	S295.4,329.67,287.11,329.67z M364.82,329.67h-48.94c6.49-10.3,10.53-24.04,10.53-32.85s0-18.36-8.96-32.85h47.82l4.26,21.8h-2.02
	c-9.41-7.55-17.69-9.41-25.08-9.41c-4.11,0-6.49,4.48-6.49,7.61s2.69,7.39,16.13,4.7v13.44c-6.72-3.36-14.78-2.91-14.78,4.93
	c0,4.67,2.48,8.64,7.63,8.64s14.99-3.71,21.93-9.31h2.69L364.82,329.67z M282.85,276.36c-1.57,9.63-0.9,24.41,1.79,33.37
	C309.73,303.24,300.77,279.72,282.85,276.36z"/>
<path d="M526.97,298.76c0-20.38,12.54-34.79,29.34-34.79c8.06,0,28.33,8.51,28.33,32.85c0,21.65-16.69,34.64-28.78,34.64
	C539.74,331.46,526.97,319.14,526.97,298.76z M565.49,298.61c0-7.42-6.02-13.44-13.44-13.44s-13.44,6.02-13.44,13.44
	s6.02,13.44,13.44,13.44S565.49,306.03,565.49,298.61z"/>
<path d="M633.58,329.67h-48.94c6.49-10.3,10.53-24.04,10.53-32.85s0-18.36-8.96-32.85h47.82l4.26,21.8h-2.02
	c-9.41-7.55-17.69-9.41-25.08-9.41c-4.11,0-6.49,4.48-6.49,7.61s2.69,7.39,16.13,4.7v13.44c-6.72-3.36-14.78-2.91-14.78,4.93
	c0,4.67,2.48,8.64,7.63,8.64s14.99-3.71,21.93-9.31h2.69L633.58,329.67z"/>
<path d="M486.77,263.97h42.44v2.31c-10.3,5.38-14.78,11.2-14.78,25.31c0,14.11-1.57,39.19-23.74,39.19
	c-16.13,0-19.48-21.72-31.35-20.6l-1.12-1.34l28.67-15.01l0.67,1.57c-7.61,7.39-1.34,14.78,2.69,14.78c7.84,0,11.2-7.01,11.2-19.48
	c0-12.48-6.83-19.93-14.67-24.86V263.97z"/>
<path d="M663.37,329.67l10.3-28.22l1.57,0.45c1.12,6.94,3.14,14.56,8.73,14.56s6.49-3.58,6.49-6.27c0-6.27-19.93-12.32-19.93-26.65
	c0-12.77,14.11-21.05,24.19-21.05s16.57,4.03,21.05,4.03s7.84-1.34,9.41-2.69l1.57,1.12l-12.77,23.74l-2.02-1.34
	c1.79-8.73-4.48-12.77-11.2-12.77c-6.72,0-8.73,5.15-8.73,7.17c0,10.53,23.96,10.97,23.96,28.67c0,13.89-10.3,19.93-20.16,19.93
	s-13.66-3.14-19.04-3.14c-5.38,0-6.49,0.45-8.51,2.24C668.29,329.44,662.69,329.67,663.37,329.67z"/>
<path d="M653.51,289.8c8.51-7.61,14.33-13.89,14.33-21.05s-5.38-9.18-10.75-9.18c-5.38,0-8.96,4.26-8.96,8.29
	c0,6.72,6.94,7.17,6.94,11.42s-1.12,7.17-2.91,9.85L653.51,289.8z"/>
</svg>
