<?xml version="1.0" encoding="utf-8"?>
<!-- Generator: Adobe Illustrator 25.0.0, SVG Export Plug-In . SVG Version: 6.00 Build 0)  -->
<svg version="1.1" id="Layer_1" xmlns="http://www.w3.org/2000/svg" xmlns:xlink="http://www.w3.org/1999/xlink" x="0px" y="0px"
	 viewBox="0 0 792 612" style="enable-background:new 0 0 792 612;" xml:space="preserve">
<g>
	<g>
		<path d="M235.54,312.52c9.8,0,16.2,7.59,16.2,31.54c0,23.95-6.39,31.54-16.2,31.54c-9.8,0-16.2-7.59-16.2-31.54
			C219.34,320.11,225.74,312.52,235.54,312.52z M231.45,350.46c0,13.13,1.53,15.77,4.09,15.77c2.56,0,4.09-2.64,4.09-15.77v-12.79
			c0-13.13-1.53-15.77-4.09-15.77c-2.56,0-4.09,2.64-4.09,15.77V350.46z"/>
		<path d="M263.25,313.72h11.08v46.97c0,2.73,0.6,5.54,3.84,5.54c3.07,0,4.09-2.64,4.09-5.54v-46.97h9.38v45.52
			c0,11.94-5.29,16.37-14.15,16.37c-8.53,0-14.24-4.43-14.24-16.37V313.72z"/>
		<path d="M309.89,323.09h-9.54v-9.38h30.18v9.38h-9.55v51.32h-11.08V323.09z"/>
		<path d="M339.65,313.72h24.81v9.38h-13.72v16.2h10.14v9.89h-10.14v25.23h-11.08V313.72z"/>
		<path d="M374,313.72h11.08v60.7H374V313.72z"/>
		<path d="M403.33,323.09h-9.54v-9.38h30.18v9.38h-9.55v51.32h-11.08V323.09z"/>
		<path d="M438.2,323.09h-9.54v-9.38h30.18v9.38h-9.55v51.32H438.2V323.09z"/>
		<path d="M467.96,313.72h25.06v9.38h-13.98v15.51h10.31v9.89h-10.31v16.54h14.58v9.38h-25.66V313.72z"/>
		<path d="M504.37,313.72h12.45c10.57,0,17.56,4.43,17.56,17.22c0,5.11-1.53,11.93-6.48,14.83l6.57,28.64h-11.17l-5.2-26.09h-2.65
			v26.09h-11.08V313.72z M515.45,339.46h2.22c4.09,0,5.62-4.09,5.62-8.44c0-6.56-2.39-8.44-6.14-8.44h-1.71V339.46z"/>
		<path d="M553.05,356.85c0,3.41,0,9.38,4.78,9.38c3.67,0,4.94-3.41,4.94-5.88c0-10.83-20.12-13.3-20.12-31.29
			c0-9.12,4.94-16.54,14.32-16.54c9.97,0,13.81,7.59,14.07,18.5h-9.89c0-3.41,0-9.12-4.43-9.12c-2.65,0-4.18,2.22-4.18,5.54
			c0,10.31,20.12,13.81,20.12,31.46c0,9.29-5.29,16.71-15.26,16.71c-11.85,0-14.24-10.4-14.24-18.75H553.05z"/>
	</g>
	<g>
		<path d="M299.61,236.39h11.08v46.97c0,2.73,0.6,5.54,3.84,5.54c3.07,0,4.09-2.64,4.09-5.54v-46.97H328v45.52
			c0,11.94-5.29,16.37-14.15,16.37c-8.53,0-14.24-4.43-14.24-16.37V236.39z"/>
		<path d="M341.14,236.39h12.45c10.57,0,17.56,4.43,17.56,17.22c0,5.11-1.53,11.93-6.48,14.83l6.57,28.64h-11.17l-5.2-26.09h-2.64
			v26.09h-11.08V236.39z M352.22,262.14h2.21c4.09,0,5.62-4.09,5.62-8.44c0-6.56-2.39-8.44-6.13-8.44h-1.71V262.14z"/>
		<path d="M382.24,236.39h13.64c6.82,0,15,3.75,15,15.34c0,6.82-3.07,12.1-9.89,13.56v0.17c7.58,1.79,11.08,7.08,11.08,14.75
			c0,11.08-7.5,16.88-15.68,16.88h-14.15V236.39z M393.32,261.28c5.54,0,6.99-2.56,6.99-8.01c0-6.9-1.45-8.1-6.99-8.01V261.28z
			 M393.32,288.22c6.65,0,7.67-2.64,7.67-8.95c0-5.54-1.37-8.69-7.67-8.61V288.22z"/>
		<path d="M428.79,236.39h16.03l7.5,60.69h-10.66l-1.62-13.47h-8.95l-1.53,13.47h-9.3L428.79,236.39z M435.86,245.77h-0.17
			l-3.49,28.98h6.9L435.86,245.77z"/>
		<path d="M462.38,236.39h10.83l10.14,32.05h0.17v-32.05h8.86v60.69h-8.61l-11.85-36.74h-0.17v36.74h-9.38V236.39z"/>
	</g>
</g>
</svg>
